<?xml version="1.0" encoding="utf-8"?>
<svg version="1.1" xmlns:xlink="http://www.w3.org/1999/xlink" width="19px" height="19px" xmlns="http://www.w3.org/2000/svg">
  <g transform="matrix(1 0 0 1 -73 -407 )">
    <path d="M 82.5 407  C 87.82 407  92 411.18  92 416.5  C 92 421.82  87.82 426  82.5 426  C 77.18 426  73 421.82  73 416.5  C 73 411.18  77.18 407  82.5 407  Z " fill-rule="nonzero" fill="#ffffff" stroke="none" />
    <path d="M 82.5 407.5  C 87.54 407.5  91.5 411.46  91.5 416.5  C 91.5 421.54  87.54 425.5  82.5 425.5  C 77.46 425.5  73.5 421.54  73.5 416.5  C 73.5 411.46  77.46 407.5  82.5 407.5  Z " stroke-width="1" stroke="#797979" fill="none" />
  </g>
</svg>