<?xml version="1.0" encoding="utf-8"?>
<svg version="1.1" xmlns:xlink="http://www.w3.org/1999/xlink" width="25px" height="25px" xmlns="http://www.w3.org/2000/svg">
  <g transform="matrix(1 0 0 1 -37 -428 )">
    <path d="M 49.5 428  C 56.5 428  62 433.5  62 440.5  C 62 447.5  56.5 453  49.5 453  C 42.5 453  37 447.5  37 440.5  C 37 433.5  42.5 428  49.5 428  Z " fill-rule="nonzero" fill="#ffffff" stroke="none" />
    <path d="M 49.5 428.5  C 56.22 428.5  61.5 433.78  61.5 440.5  C 61.5 447.22  56.22 452.5  49.5 452.5  C 42.78 452.5  37.5 447.22  37.5 440.5  C 37.5 433.78  42.78 428.5  49.5 428.5  Z " stroke-width="1" stroke="#797979" fill="none" />
  </g>
</svg>