<?xml version="1.0" encoding="utf-8"?>
<svg version="1.1" xmlns:xlink="http://www.w3.org/1999/xlink" width="28px" height="28px" xmlns="http://www.w3.org/2000/svg">
  <g transform="matrix(1 0 0 1 -218 -730 )">
    <path d="M 0.111111100260417 14  C 0.111111100260417 6.32951389973958  6.32951389973958 0.111111100260417  14 0.111111100260417  C 21.6704861002604 0.111111100260417  27.8888888997396 6.3295138671875  27.8888888997396 14  C 27.8888888997396 21.6704861328125  21.6704861002604 27.8888888997396  14 27.8888888997396  C 6.32951389973958 27.8888888997396  0.111111100260417 21.6704861002604  0.111111100260417 14  Z M 25.8055555664063 14  C 25.8055555664063 7.47986110026041  20.5201388997396 2.19444443359375  14 2.19444443359375  C 7.47986110026042 2.19444443359375  2.19444443359375 7.47986110026042  2.19444443359375 14  C 2.19444443359375 20.5201388997396  7.47986110026042 25.8055555664063  14 25.8055555664063  C 20.5201388997396 25.8055555664063  25.8055555664063 20.5201388997396  25.8055555664063 14  Z M 11.7920138997396 9.91006943359375  L 18.8555555664063 7.36701389973958  C 19.0065451672841 7.31261709974993  19.1658204010478 7.28480122472175  19.3263098755387 7.28480122472175  C 20.0933720340741 7.28480122472175  20.7151987752782 7.9066279659259  20.7151987752782 8.67369012446134  C 20.7151987752782 8.83417959895222  20.6873829002501 8.99345483271592  20.6329861002604 9.14444443359375  L 18.0899305664062 16.2083333333333  C 17.7743651685019 17.0846474554832  17.0843584370796 17.7745268754135  16.2079861002604 18.0899305664063  L 9.14444443359375 20.6329861002604  C 8.99345483271591 20.6873829002501  8.83417959895223 20.7151987752782  8.67369012446134 20.7151987752782  C 7.9066279659259 20.7151987752782  7.28480122472175 20.0933720340741  7.28480122472175 19.3263098755387  C 7.28480122472175 19.1658204010478  7.31261709974993 19.0065451672841  7.36701389973958 18.8555555664063  L 9.91006943359375 11.7916666666667  C 10.2256348314981 10.9153525445168  10.9156415629204 10.2254731245865  11.7920138997396 9.91006943359375  Z M 16.1298611002604 15.5024305664063  L 18.1729166666667 9.82708333333333  L 12.4975694335937 11.8701388997396  C 12.2053519810318 11.9752945245999  11.9752945245999 12.2053519810318  11.8701388997396 12.4975694335937  L 9.82708333333333 18.1729166666667  L 15.5024305664062 16.1298611002604  C 15.7946480189682 16.0247054754001  16.0247054754001 15.7946480189682  16.1298611002604 15.5024305664063  Z " fill-rule="nonzero" fill="#95f204" stroke="none" transform="matrix(1 0 0 1 218 730 )" />
  </g>
</svg>