<?xml version="1.0" encoding="utf-8"?>
<svg version="1.1" xmlns:xlink="http://www.w3.org/1999/xlink" width="20px" height="20px" xmlns="http://www.w3.org/2000/svg">
  <g transform="matrix(1 0 0 1 -23 -106 )">
    <path d="M 14.5968191964286 9.16294642857143  L 14.594494047619 9.16294642857143  L 6.30301339285714 0.848214285714286  L 6.99590773809524 0.620349702380952  C 9.43266369047619 -0.184151785714286  12.0624069940476 0.0158110119047619  14.3480282738095 1.16443452380952  L 14.5968191964286 1.28999255952381  L 14.5968191964286 9.16294642857143  Z M 13.6946614583333 1.84802827380952  C 11.9112723214286 1.015625  9.91164434523809 0.813337053571428  7.99339657738095 1.27139136904762  L 13.6946614583333 6.98660714285714  L 13.6946614583333 1.84802827380952  Z M 18.5867745535714 14.2364211309524  L 18.4565662202381 14.4828869047619  L 10.5859375 14.3643043154762  L 19.0215773809524 6.19838169642857  L 19.2401413690476 6.89360119047619  C 19.5517113095238 7.88411458333333  19.7005208333333 8.90252976190476  19.6842447916667 9.92327008928571  C 19.6609933035714 11.4322916666667  19.2936197916667 12.8831845238095  18.5867745535714 14.2364211309524  Z M 18.5751488095238 7.88411458333333  L 12.7739025297619 13.4993489583333  L 17.9124813988095 13.5760788690476  C 18.4728422619048 12.4204799107143  18.7658110119048 11.1881510416667  18.784412202381 9.91164434523809  C 18.7960379464286 9.23270089285714  18.7239583333333 8.55143229166666  18.5751488095238 7.88411458333333  Z M 13.0529203869048 19.3075706845238  C 12.192615327381 19.5819382440476  11.0718936011905 19.8911830357143  9.98139880952381 19.8911830357143  L 9.91164434523809 19.8911830357143  C 8.40262276785714 19.8725818452381  6.94940476190476 19.5075334821429  5.59616815476191 18.8053385416667  L 5.34970238095238 18.6774553571429  L 5.44270833333333 10.1883370535714  L 13.7295386904762 19.0936569940476  L 13.0529203869048 19.3075706845238  Z M 6.31696428571429 12.4507068452381  L 6.25418526785714 18.1310453869048  C 7.412109375 18.6867559523809  8.64443824404762 18.9773995535714  9.92094494047619 18.9936755952381  C 10.6487165178571 19.0053013392857  11.411365327381 18.8448660714286  12.0903087797619 18.6588541666667  L 6.31696428571429 12.4507068452381  Z M 9.39313616071429 5.21251860119048  L 1.09002976190476 13.4644717261905  L 0.864490327380952 12.7692522321429  C 0.543619791666667 11.7833891369048  0.383184523809524 10.7649739583333  0.385509672619048 9.74423363095238  C 0.390159970238095 8.23521205357143  0.743582589285714 6.77966889880952  1.43415178571429 5.41945684523809  L 1.55970982142857 5.17299107142857  L 9.39313616071429 5.21251860119048  Z M 7.22377232142857 6.10072544642857  L 2.11542038690476 6.07514880952381  C 1.56901041666667 7.23772321428571  1.28999255952381 8.47237723214286  1.28534226190476 9.74888392857143  C 1.28301711309524 10.4278273809524  1.36207217261905 11.1044456845238  1.51785714285714 11.7717633928571  L 7.22377232142857 6.10072544642857  Z " fill-rule="nonzero" fill="#f59a23" stroke="none" transform="matrix(1 0 0 1 23 106 )" />
  </g>
</svg>