<?xml version="1.0" encoding="utf-8"?>
<svg version="1.1" xmlns:xlink="http://www.w3.org/1999/xlink" width="21px" height="21px" xmlns="http://www.w3.org/2000/svg">
  <g transform="matrix(1 0 0 1 -23 -105 )">
    <path d="M 20.882080078125 10.4114435369318  C 20.882080078125 16.1256658380682  16.2328657670455 20.7772105823864  10.5186434659091 20.7772105823864  C 4.80209073153409 20.7772105823864  0.152876420454545 16.1279962713068  0.152876420454545 10.4114435369318  C 0.152876420454545 8.33036665482955  0.768110795454545 6.321533203125  1.93099698153409 4.60400390625  C 2.29920543323864 4.06334339488636  2.71868341619318 3.552978515625  3.18243963068182 3.08922230113636  C 3.53433504971591 2.73732688210227  4.10296075994318 2.73499644886364  4.45718661221591 3.08689186789773  C 4.80908203125 3.43878728693182  4.80908203125 4.00974343039773  4.45951704545455 4.36163884943182  C 4.07732599431818 4.74616033380682  3.72776100852273 5.16796875  3.4248046875 5.61541193181818  C 2.46466619318182 7.03231534090909  1.95663174715909 8.69158380681818  1.95663174715909 10.4114435369318  C 1.95663174715909 15.1329012784091  5.79718572443182 18.9734552556818  10.5186434659091 18.9734552556818  C 15.2401012073864 18.9734552556818  19.0806551846591 15.1329012784091  19.0806551846591 10.4114435369318  C 19.0806551846591 5.68998579545455  15.2401012073864 1.84943181818182  10.5186434659091 1.84943181818182  C 9.61210493607955 1.84943181818182  8.72187943892045 1.9892578125  7.87127130681818 2.26657936789773  C 7.44713245738636 2.40407492897727  7.02998490767045 2.57652698863637  6.63148082386363 2.77927468039773  C 6.18869850852273 3.00532670454546  5.64570756392045 2.82821377840909  5.41965553977273 2.38543146306818  C 5.193603515625 1.94264914772727  5.36838600852273 1.399658203125  5.81349875710227 1.17360617897727  C 6.2958984375 0.92658025568182  6.80160245028409 0.716841264204547  7.31662819602273 0.551380504261365  C 8.3466796875 0.215798117897729  9.42567027698863 0.0456764914772742  10.5209738991477 0.0456764914772742  C 16.2328657670455 0.0480069247159091  20.882080078125 4.69722123579545  20.882080078125 10.4114435369318  Z " fill-rule="nonzero" fill="#f59a23" stroke="none" transform="matrix(1 0 0 1 23 105 )" />
  </g>
</svg>