<?xml version="1.0" encoding="utf-8"?>
<svg version="1.1" xmlns:xlink="http://www.w3.org/1999/xlink" width="19px" height="19px" xmlns="http://www.w3.org/2000/svg">
  <g transform="matrix(1 0 0 1 -25 -177 )">
    <path d="M 19 9.5  C 19 14.7383  14.7383 19  9.5 19  C 4.2617 19  0 14.7383  0 9.5  C 0 4.2617  4.2617 0  9.5 0  C 14.7383 0  19 4.2617  19 9.5  Z M 17.8125 9.5  C 17.8125 4.9172  14.0828 1.1875  9.5 1.1875  C 4.9172 1.1875  1.1875 4.9172  1.1875 9.5  C 1.1875 14.0828  4.9172 17.8125  9.5 17.8125  C 14.0828 17.8125  17.8125 14.0828  17.8125 9.5  Z " fill-rule="nonzero" fill="#027db4" stroke="none" transform="matrix(1 0 0 1 25 177 )" />
  </g>
</svg>