<?xml version="1.0" encoding="utf-8"?>
<svg version="1.1" xmlns:xlink="http://www.w3.org/1999/xlink" width="12px" height="12px" xmlns="http://www.w3.org/2000/svg">
  <g transform="matrix(1 0 0 1 -29 -180 )">
    <path d="M 5.863125 10.730625  C 5.17875 11.4375  4.2225 11.80125  3.27375 11.80125  C 2.5125 11.80125  1.755 11.566875  1.1475 11.08875  C 0.474375000000001 10.558125  0.0731250000000008 9.81  0.0168750000000006 8.983125  C -0.0393749999999995 8.13375  0.27375 7.310625  0.898125000000001 6.6675  L 2.625 4.88625  C 2.73452967953586 4.77928033544732  2.88155574793695 4.71939602333028  3.03465460434595 4.71939602333028  C 3.35846605673111 4.71939602333028  3.62096710434595 4.98189707094511  3.62096710434595 5.30570852333028  C 3.62096710434595 5.45238998356618  3.56598644192633 5.59374372396841  3.466875 5.701875  L 1.74 7.48125  C 1.348125 7.884375  1.153125 8.38875  1.186875 8.9025  C 1.21875 9.39375  1.4625 9.841875  1.873125 10.16625  C 2.7825 10.8825  4.194375 10.768125  5.023125 9.915  C 5.611875 9.3075  5.870625 8.521875  5.73375 7.755  L 5.131875 4.39125  C 4.93125 3.27  5.29875 2.13  6.136875 1.265625  L 6.14625 1.25625  C 7.381875 -0.00749999999999718  9.49125 -0.164999999999998  10.854375 0.909375000000003  C 11.5275 1.44  11.930625 2.188125  11.985 3.015  C 12.04125 3.864375  11.728125 4.6875  11.10375 5.330625  L 9.39375 7.093125  C 9.28422032046413 7.2000946645527  9.13719425206304 7.25997897666974  8.98409539565404 7.25997897666974  C 8.66028394326887 7.25997897666974  8.39778289565404 6.99747792905491  8.39778289565404 6.67366647666974  C 8.39778289565404 6.52698501643383  8.45276355807367 6.3856312760316  8.551875 6.2775  L 10.261875 4.515  C 10.65375 4.111875  10.84875 3.6075  10.815 3.09375  C 10.78125 2.6025  10.5375 2.154375  10.12875 1.83  C 9.22125 1.115625  7.8075 1.228125  6.97875 2.08125  L 6.97125 2.08875  C 6.403125 2.679375  6.15375 3.4425  6.285 4.185  L 6.886875 7.54875  C 7.09125 8.690625  6.718125 9.84937500000001  5.863125 10.730625  Z " fill-rule="nonzero" fill="#027db4" stroke="none" transform="matrix(1 0 0 1 29 180 )" />
  </g>
</svg>