<?xml version="1.0" encoding="utf-8"?>
<svg version="1.1" xmlns:xlink="http://www.w3.org/1999/xlink" width="20px" height="20px" xmlns="http://www.w3.org/2000/svg">
  <g transform="matrix(1 0 0 1 -24 -309 )">
    <path d="M 13.5714285714286 1.07142857142857  C 13.2974778005231 1.07142857142857  13.0753968215216 0.849347592427092  13.0753968215216 0.575396821521578  C 13.0753968215216 0.301446050616063  13.2974778005231 0.0793650716145838  13.5714285714286 0.0793650716145838  L 16.4464285714286 0.0793650716145834  C 18.3654204493644 0.0801866751751058  19.9206351042674 1.63606746999167  19.9206349283854 3.55505952380952  L 19.9206349283854 6.65922619047619  C 19.9206349283854 6.9331769613817  19.6985539493839 7.15525794038319  19.4246031784784 7.15525794038319  C 19.1506524075729 7.15525794038319  18.9285714285714 6.9331769613817  18.9285714285714 6.65922619047619  L 18.9285714285714 3.55505952380952  C 18.9285716746782 2.18396895184941  17.817518897282 1.07225007566579  16.4464285714286 1.07142857142857  L 13.570932547433 1.07142857142857  Z M 18.9285714285714 13.8125  C 18.9285714285714 13.5385492290945  19.1506524075729 13.316468250093  19.4246031784784 13.316468250093  C 19.6985539493839 13.316468250093  19.9206349283854 13.5385492290945  19.9206349283854 13.8125  L 19.9206349283854 16.445932547433  C 19.9211829549149 18.3642161808485  18.3666962263804 19.9198132501016  16.4484126906622 20  L 3.5515873093378 20  C 1.63591271391369 19.9206349283854  0.0793650948660709 18.3630952380952  0.079365071614583 16.4513888811384  L 0.079365071614583 13.5972222144717  C 0.079365071614583 13.3232714435662  0.301446050616062 13.1011904645647  0.575396821521577 13.1011904645647  C 0.849347592427092 13.1011904645647  1.07142857142857 13.3232714435662  1.07142857142857 13.5972222144717  L 1.07142857142857 16.4513888811384  C 1.07443453860591 17.8194136282317  2.18355993908007 18.9272080782295  3.5515873093378 19  L 16.4484126906622 19  C 17.8174603097098 18.9285714285714  18.9285714285714 17.8169642857143  18.9285714285714 16.445932547433  L 18.9285714285714 13.8120039760045  Z M 1.07142857142857 3.55605159505208  L 1.07142857142857 6.53670635695684  C 1.07142857142857 6.81065712786236  0.849347592427092 7.03273810686384  0.575396821521578 7.03273810686384  C 0.301446050616063 7.03273810686384  0.0793650716145838 6.81065712786236  0.0793650716145834 6.53670635695684  L 0.0793650716145834 3.55555554780506  C 0.0793650716145834 1.63640873790923  1.63343254743304 0.0793650716145834  3.55059523809524 0.0793650716145834  L 6.5436507859003 0.0793650716145834  C 6.81760155680581 0.079365071614583  7.03968253580729 0.301446050616062  7.03968253580729 0.575396821521577  C 7.03968253580729 0.849347592427092  6.81760155680581 1.07142857142857  6.5436507859003 1.07142857142857  L 3.55059523809524 1.07142857142857  C 2.18098798851357 1.07279637660728  1.07142678529995 2.18346623443227  1.07142678529995 3.5530741670165  C 1.07142678529995 3.55406664329591  1.07142738067626 3.55505911948699  1.07142857142857 3.55605159505208  Z M 19.4246031668527 10.4960317382812  L 0.575396833147321 10.4960317382812  C 0.301446068662528 10.4960317382812  0.0793650948660705 10.2739507644848  0.0793650948660705 10  C 0.0793650948660705 9.7260492355152  0.301446068662527 9.50396826171875  0.575396833147321 9.50396826171875  L 19.4246031668527 9.50396826171875  C 19.6985539313375 9.50396826171875  19.9206349051339 9.72604923551521  19.9206349051339 10  C 19.9206349051339 10.2739507644848  19.6985539313375 10.4960317382812  19.4246031668527 10.4960317382812  Z " fill-rule="nonzero" fill="#02a7f0" stroke="none" transform="matrix(1 0 0 1 24 309 )" />
  </g>
</svg>