<?xml version="1.0" encoding="utf-8"?>
<svg version="1.1" xmlns:xlink="http://www.w3.org/1999/xlink" width="23px" height="23px" xmlns="http://www.w3.org/2000/svg">
  <g transform="matrix(1 0 0 1 -24 -359 )">
    <path d="M 22.7532291666667 12.3167346938776  L 20.8025416666667 13.2151428571429  L 21.7057708333333 15.0781428571429  L 19.6913541666667 16.0061224489796  L 20.5136041666667 17.7029591836735  L 18.0185833333333 18.8520204081633  L 17.4248958333333 17.6269183673469  L 18.6635416666667 17.056612244898  L 17.8408125 15.3607142857143  L 19.8557083333333 14.4327346938775  L 18.952 12.5692653061225  L 20.9031666666667 11.670387755102  L 20.2653958333333 10.3551632653061  L 21.52225 9.77640816326531  L 22.7532291666667 12.3167346938776  Z M 14.0367083333333 22.9934285714286  L 1.83041666666667 18.7323265306122  L 8.5430625 0.464224489795918  L 20.7493541666667 4.72485714285714  L 14.0367083333333 22.9934285714286  Z M 14.6236875 17.378612244898  L 18.9726041666667 5.5434693877551  L 9.38304166666667 2.19579591836735  L 5.034125 14.0314081632653  L 14.6236875 17.378612244898  Z M 14.1550625 18.6534693877551  L 4.5655 15.3062653061225  L 3.60716666666667 17.9141836734694  L 13.1967291666667 21.261387755102  L 14.1550625 18.6534693877551  Z M 3.866875 5.72371428571429  L 4.78879166666667 7.62567346938776  L 2.87739583333333 8.50577551020408  L 3.8295 10.469693877551  L 2.08916666666667 11.2709387755102  L 2.75904166666667 12.6523469387755  L 1.5021875 13.2311020408163  L 0.239104166666667 10.6250612244898  L 1.9794375 9.82334693877551  L 1.02733333333333 7.85989795918367  L 2.93872916666667 6.97979591836735  L 2.0168125 5.07783673469388  L 4.623 3.87761224489796  L 5.2166875 5.10177551020408  L 3.866875 5.72371428571429  Z " fill-rule="nonzero" fill="#02a7f0" stroke="none" transform="matrix(1 0 0 1 24 359 )" />
  </g>
</svg>