<?xml version="1.0" encoding="utf-8"?>
<svg version="1.1" xmlns:xlink="http://www.w3.org/1999/xlink" width="24px" height="24px" xmlns="http://www.w3.org/2000/svg">
  <g transform="matrix(1 0 0 1 -24 -242 )">
    <path d="M 23.771484375 12.2607421875  C 23.771484375 11.6455078125  23.4345703125 11.0830078125  22.8896484375 10.7958984375  C 22.34765625 10.505859375  21.69140625 10.541015625  21.181640625 10.8837890625  C 21.1669921875 10.892578125  21.1552734375 10.9013671875  21.140625 10.9130859375  L 19.3916015625 12.26953125  L 19.3916015625 10.6962890625  C 19.3916015625 8.794921875  17.8447265625 7.2509765625  15.9462890625 7.2509765625  L 3.7880859375 7.2509765625  C 1.88671875 7.2509765625  0.342773437500002 8.7978515625  0.342773437500002 10.6962890625  L 0.342773437500002 19.96875  C 0.342773437500002 21.8701171875  1.8896484375 23.4140625  3.7880859375 23  L 15.9462890625 23  C 17.84765625 23.4140625  19.3916015625 21.8671875  19.3916015625 19.96875  L 19.3916015625 19.2275390625  L 21.140625 20.583984375  C 21.15234375 20.5927734375  21.1669921875 20.6044921875  21.181640625 20.61328125  C 21.69140625 20.9560546875  22.34765625 20.9912109375  22.8896484375 20.701171875  C 23.431640625 20.4111328125  23.771484375 19.8486328125  23.771484375 19.2333984375  L 23.771484375 12.2607421875  Z M 22.306640625 12.2607421875  L 22.306640625 19.2333984375  C 22.306640625 19.330078125  22.2509765625 19.3828125  22.201171875 19.40625  C 22.1572265625 19.4296875  22.0869140625 19.447265625  22.013671875 19.4033203125  L 19.1103515625 17.150390625  C 18.890625 16.98046875  18.5888671875 16.9482421875  18.33984375 17.0712890625  C 18.087890625 17.1943359375  17.9296875 17.44921875  17.9296875 17.73046875  L 17.9296875 19.9658203125  C 17.9296875 21.05859375  17.0419921875 21.9462890625  15.94921875 22  L 3.791015625 22  C 2.6982421875 21.9462890625  1.810546875 21.05859375  1.810546875 19.9658203125  L 1.810546875 10.693359375  C 1.810546875 9.6005859375  2.6982421875 8.712890625  3.791015625 9  L 15.94921875 9  C 17.0419921875 8.712890625  17.9296875 9.6005859375  17.9296875 10.693359375  L 17.9296875 13.763671875  C 17.9296875 14.0419921875  18.087890625 14.2998046875  18.33984375 14.4228515625  C 18.591796875 14.5458984375  18.890625 14.5166015625  19.1103515625 14.34375  L 22.013671875 12.0908203125  C 22.08984375 12.046875  22.1572265625 12.064453125  22.201171875 12.087890625  C 22.248046875 12.1142578125  22.306640625 12.1640625  22.306640625 12.2607421875  Z M 11.033203125 3.6826171875  C 11.033203125 5.443359375  12.4658203125 6.8759765625  14.2265625 6.8759765625  C 15.9873046875 6.8759765625  17.419921875 5.443359375  17.419921875 3.6826171875  C 17.419921875 1.921875  15.9873046875 0.489257812500001  14.2265625 0.489257812500001  C 12.4658203125 0.489257812500001  11.033203125 1.921875  11.033203125 3.6826171875  Z M 12.498046875 3.6826171875  C 12.498046875 2.73046875  13.2744140625 1.9541015625  14.2265625 1.9541015625  C 15.1787109375 1.9541015625  15.955078125 2.73046875  15.955078125 3.6826171875  C 15.955078125 4.634765625  15.1787109375 5.4111328125  14.2265625 5.4111328125  C 13.2744140625 5.4111328125  12.498046875 4.634765625  12.498046875 3.6826171875  Z M 4.986328125 4.359375  C 4.986328125 5.748046875  6.1171875 6.8759765625  7.5029296875 6.8759765625  C 8.8916015625 6.8759765625  10.01953125 5.748046875  10.01953125 4.359375  C 10.01953125 2.970703125  8.8916015625 1.8427734375  7.5029296875 1.8427734375  C 6.1142578125 1.8427734375  4.986328125 2.970703125  4.986328125 4.359375  Z M 6.451171875 4.3564453125  C 6.451171875 3.7763671875  6.9228515625 3.3046875  7.5029296875 3.3046875  C 8.0830078125 3.3046875  8.5546875 3.7763671875  8.5546875 4.3564453125  C 8.5546875 4.9365234375  8.0830078125 5.408203125  7.5029296875 5.408203125  C 6.9228515625 5.408203125  6.451171875 4.9365234375  6.451171875 4.3564453125  Z " fill-rule="nonzero" fill="#a30014" stroke="none" transform="matrix(1 0 0 1 24 242 )" />
  </g>
</svg>