<?xml version="1.0" encoding="utf-8"?>
<svg version="1.1" xmlns:xlink="http://www.w3.org/1999/xlink" width="21px" height="14px" xmlns="http://www.w3.org/2000/svg">
  <g transform="matrix(1 0 0 1 -24 -430 )">
    <path d="M 20.2994717684659 8.43310546875  C 18.5003773082386 10.3740234375  14.8346058238636 13.62841796875  10.4953391335227 13.62841796875  C 6.15374200994318 13.62841796875  2.49030095880682 10.37158203125  0.693536931818181 8.4306640625  C -0.143088600852273 7.52734375  -0.143088600852273 6.111328125  0.693536931818181 5.2080078125  C 1.4765625 4.36328125  2.31085759943182 3.59423828125  3.17311789772727 2.92041015625  C 3.52035245028409 2.6494140625  4.00974343039773 2.72265625  4.26842151988636 3.0888671875  C 4.527099609375 3.45263671875  4.45485617897727 3.96533203125  4.10762162642045 4.236328125  C 3.31061345880682 4.85888671875  2.53924005681818 5.57177734375  1.81680575284091 6.35302734375  C 1.57211026278409 6.61669921875  1.57211026278409 7.029296875  1.81680575284091 7.29296875  C 3.44344815340909 9.04833984375  6.731689453125 11.99267578125  10.4953391335227 11.99267578125  C 14.2589888139205 11.99267578125  17.549560546875 9.04833984375  19.1738725142045 7.29296875  C 19.4185680042614 7.029296875  19.4185680042614 6.61669921875  19.1738725142045 6.35302734375  C 17.5472301136364 4.59765625  14.2589888139205 1.6533203125  10.4953391335227 1.6533203125  C 9.33944424715909 1.6533203125  8.13227982954546 1.93896484375  6.90647194602273 2.50048828125  C 6.50796786221591 2.68359375  6.04887251420455 2.4931640625  5.87642045454546 2.078125  C 5.70396839488636 1.6630859375  5.88341175426136 1.1796875  6.27958540482955 0.9990234375  C 7.705810546875 0.344726562499999  9.12504438920455 0.0126953125  10.4976695667614 0.0126953125  C 14.8369362571023 0.0126953125  18.5003773082386 3.26953125  20.2994717684659 5.21044921875  C 21.1360973011364 6.11376953125  21.1360973011364 7.52978515625  20.2994717684659 8.43310546875  Z " fill-rule="nonzero" fill="#f59a23" stroke="none" transform="matrix(1 0 0 1 24 430 )" />
  </g>
</svg>