<?xml version="1.0" encoding="utf-8"?>
<svg version="1.1" xmlns:xlink="http://www.w3.org/1999/xlink" width="9px" height="8px" xmlns="http://www.w3.org/2000/svg">
  <g transform="matrix(1 0 0 1 -31 -432 )">
    <path d="M 1.70703125 4.06755514705882  C 1.70703125 2.87729779411765  2.5517578125 1.87086397058824  3.7041015625 1.55147058823529  C 3.962890625 3.22196691176471  5.3984375 4.53860294117647  7.19287109375 4.72702205882353  C 6.88037109375 5.85523897058824  5.7890625 6.69163602941176  4.4951171875 6.69163602941176  C 2.95703125 6.69163602941176  1.70703125 5.51516544117647  1.70703125 4.06755514705882  Z M 5.00048828125 0.333639705882351  C 4.83203125 0.312959558823528  4.66845703125 0.285386029411763  4.4951171875 0.285386029411765  C 2.27587890625 0.285386029411765  0.479003906249998 1.97886029411765  0.479003906249998 4.06525735294118  C 0.479003906249998 6.15395220588235  2.2783203125 7.84512867647059  4.4951171875 7.84512867647059  C 6.71435546875 7.84512867647059  8.51123046875 6.1516544117647  8.51123046875 4.06525735294117  C 8.51123046875 3.85845588235294  8.4794921875 3.66084558823529  8.44775390625 3.46323529411765  C 8.18896484375 3.5390625  7.92041015625 3.59191176470588  7.63720703125 3.59191176470588  C 6.12109375 3.59191176470588  4.89306640625 2.43612132352941  4.89306640625 1.00919117647059  C 4.89306640625 0.774816176470587  4.93701171875 0.549632352941175  5.00048828125 0.333639705882351  Z " fill-rule="nonzero" fill="#f59a23" stroke="none" transform="matrix(1 0 0 1 31 432 )" />
  </g>
</svg>