<?xml version="1.0" encoding="utf-8"?>
<svg version="1.1" xmlns:xlink="http://www.w3.org/1999/xlink" width="23px" height="23px" xmlns="http://www.w3.org/2000/svg">
  <g transform="matrix(1 0 0 1 -24 -473 )">
    <path d="M 10.9001908735795 6.29059392755682  C 10.6704767400568 6.74746981534091  10.2110484730114 7.01291725852273  9.731201171875 7.01291725852273  C 9.53466796875 7.01291725852273  9.338134765625 6.96952681107955  9.15181107954546 6.87508877840909  C 8.50861150568182 6.55348899147727  8.24571644176136 5.7724609375  8.56731622869318 5.126708984375  L 10.6781338778409 0.889759410511364  C 10.9997336647727 0.246559836647727  11.78076171875 -0.016335227272727  12.426513671875 0.305264559659091  C 13.0697132457386 0.626864346590909  13.3326083096591 1.40789240056818  13.0110085227273 2.05364435369318  L 10.9001908735795 6.29059392755682  Z M 6.24465110085227 7.29623135653409  C 6.109375 7.34217418323864  5.968994140625 7.36514559659091  5.83116566051136 7.36514559659091  C 5.28750887784091 7.36514559659091  4.77958540482955 7.02057439630682  4.59581409801136 6.474365234375  L 3.87349076704545 4.31760475852273  C 3.64632901278409 3.63611949573864  4.01387162642045 2.89592950994318  4.69535688920455 2.66876775568182  C 5.37428977272727 2.44160600142046  6.11447975852273 2.80914861505682  6.34419389204545 3.49063387784091  L 7.06651722301136 5.64739435369318  C 7.29367897727273 6.32887961647727  6.92613636363636 7.06906960227273  6.24465110085227 7.29623135653409  Z M 4.49116654829546 9.64442027698864  C 4.26145241477273 10.1038485440341  3.79947176846591 10.3692959872159  3.32217684659091 10.3692959872159  C 3.12564364346591 10.3692959872159  2.92911044034091 10.3259055397727  2.74278675426136 10.2314675071023  L 2.25528231534091 9.98899147727273  C 1.61208274147727 9.66739169034091  1.34918767755682 8.88636363636364  1.67078746448864 8.24061168323864  C 1.99238725142045 7.59485973011364  2.77341530539773 7.33451704545455  3.41916725852273 7.653564453125  L 3.90667169744318 7.89604048295455  C 4.54987127130682 8.21764026988636  4.81276633522727 8.99866832386364  4.49116654829546 9.64442027698864  Z M 1.79074928977273 14.9712357954546  C 1.65292080965909 15.0171786221591  1.51253995028409 15.0401500355114  1.37726384943182 15.0401500355114  C 0.8310546875 15.0401500355114  0.323131214488637 14.6955788352273  0.141912286931818 14.1493696732955  C -0.0852494673295455 13.4678844105114  0.282293146306818 12.7276944247159  0.963778409090909 12.5005326704545  L 3.26091974431818 11.7322665127841  C 3.947509765625 11.5025523792614  4.68259499289773 11.8726473721591  4.90975674715909 12.5541326349432  C 5.13691850142046 13.2356178977273  4.76937588778409 13.9758078835227  4.087890625 14.2029696377841  L 1.79074928977273 14.9712357954546  Z M 6.64026988636363 18.4833096590909  C 6.41055575284091 18.940185546875  5.94857510653409 19.2056329900568  5.47128018465909 19.2056329900568  C 5.27474698153409 19.2056329900568  5.07821377840909 19.1622425426136  4.89189009232955 19.0678045099432  C 4.24869051846591 18.7462047230114  3.98579545454546 17.9651766690341  4.30739524147727 17.3194247159091  L 5.51467063210227 14.8946644176136  C 5.83627041903409 14.25146484375  6.61985085227273 13.9885697798295  7.26305042613636 14.3101695667614  C 7.90625 14.6317693536932  8.16914506392046 15.4127974076705  7.84754527698864 16.0585493607955  L 6.64026988636363 18.4833096590909  Z M 13.1105513139205 22.6870783025568  C 12.9752752130682 22.7330211292614  12.8348943536932 22.7559925426136  12.6970658735795 22.7559925426136  C 12.1534090909091 22.7559925426136  11.6454856178977 22.4114213423295  11.4617143110795 21.8652121803977  L 9.34323952414773 15.5378639914773  C 9.11607776988636 14.8563787286932  9.48362038352273 14.1161887428977  10.1651056463068 13.8890269886364  C 10.8440385298295 13.661865234375  11.584228515625 14.0294078480114  11.8139426491477 14.7108931107955  L 13.9324174360795 21.0382412997159  C 14.1595791903409 21.7197265625  13.7920365767045 22.4599165482955  13.1105513139205 22.6870783025568  Z M 22.6309259588068 16.8753107244318  C 22.4037642045455 17.3321866122159  21.9417835582386 17.5976340553977  21.4644886363636 17.5976340553977  C 21.2679554332386 17.5976340553977  21.0714222301136 17.5542436079545  20.8850985440341 17.4598055752841  L 12.5081898082386 13.2866654829545  C 11.864990234375 12.9650656960227  11.6020951704545 12.1840376420455  11.9236949573864 11.5382856889205  C 12.2452947443182 10.8925337357955  13.0288751775568 10.6321910511364  13.6720747514205 10.9537908380682  L 22.0464311079545 15.1269309303977  C 22.6896306818182 15.4485307173295  22.9525257457386 16.2295587713068  22.6309259588068 16.8753107244318  Z M 13.1513893821023 9.45554421164773  C 13.01611328125 9.50148703835227  12.875732421875 9.52190607244318  12.7379039417614 9.52190607244318  C 12.1942471590909 9.52190607244318  11.6863236860795 9.17733487215909  11.5025523792614 8.63112571022727  C 11.275390625 7.94964044744318  11.6429332386364 7.20945046164773  12.3244185014205 6.98228870738636  L 20.1831942471591 4.35333806818182  C 20.8595747514205 4.12617631392046  21.6023171164773 4.49371892755682  21.83203125 5.17520419034091  C 22.0591930042614 5.856689453125  21.691650390625 6.59687943892045  21.0101651278409 6.82404119318182  L 13.1513893821023 9.45554421164773  Z " fill-rule="nonzero" fill="#d9001b" stroke="none" transform="matrix(1 0 0 1 24 473 )" />
  </g>
</svg>