<?xml version="1.0" encoding="utf-8"?>
<svg version="1.1" xmlns:xlink="http://www.w3.org/1999/xlink" width="19px" height="22px" xmlns="http://www.w3.org/2000/svg">
  <g transform="matrix(1 0 0 1 -24 -541 )">
    <path d="M 4.19838088226318 12.1563278214738  L 9.16805542297363 17.7154248046875  C 9.29563513488769 17.8580419473184  9.47662028198242 17.9323217060811  9.6546384765625 17.9323217060811  C 9.66353939208984 17.9323217060811  9.67244030761719 17.9323217060811  9.68134119415283 17.9323217060811  C 9.69024210968018 17.9323217060811  9.69914302520752 17.9323217060811  9.70804391174316 17.9323217060811  C 9.88606210632324 17.9323217060811  10.0640803009033 17.8580419473184  10.194626965332 17.7154248046875  L 15.1702353530884 12.1563278214738  C 17.50820756073 9.63378728357264  16.7545972442627 6.14263873785895  16.7219605636597 5.99407922033362  L 16.7130596481323 5.96139611486487  C 15.8674732528687 2.91592609269426  13.8677356033325 1.61454477143159  12.3397461288452 1.05596100876267  C 11.5505321502686 0.767755550570103  10.8117566833496 0.648907936549833  10.2480324005127 0.601368908361488  C 10.218362701416 0.595426533467063  10.185726020813 0.589484158572637  10.1560563217163 0.586512956608955  C 10.135287538147 0.583541754645272  9.96320327758789 0.571657004856422  9.68430811767578 0.574628206820104  C 9.40541295776367 0.571657004856422  9.23332869720459 0.586512956608955  9.21255991363526 0.586512956608955  C 9.17992323303223 0.589484158572637  9.15025353393555 0.595426533467063  9.12058383483887 0.601368908361488  C 8.55685958099365 0.648907965582772  7.81511710357666 0.770726752533786  7.02887010650635 1.05596100876267  C 5.50088066101074 1.61454477143159  3.50114298248291 2.9159261217272  2.65555658721924 5.96139611486487  L 2.6466556716919 5.99407922033362  C 2.61401899108887 6.14263873785896  1.85744169311524 9.63675848553632  4.19838088226318 12.1563278214738  Z M 3.82750973052979 8.05608525390625  C 3.75630246429443 7.12016032252956  3.89278309173584 6.39518991765203  3.91355187530518 6.29416945734797  C 4.4713421951294 4.30644318253801  5.65219619598389 2.96346517894848  7.42644414978027 2.30386092694257  C 8.38180842590332 1.94731808488176  9.27189936981201 1.88789427787162  9.72287879028321 1.8819519029772  C 10.1857260787964 1.8908654798353  11.0016427749634 1.96217403663429  11.8887667663574 2.28603377322635  C 13.6867504852295 2.94266682326858  14.8824393066406 4.28861599978885  15.4461635894775 6.29416942831503  C 15.4669323730469 6.40113226351351  15.6034130004883 7.12313152449324  15.5292387527466 8.05608525390625  C 15.4253948059082 9.35746657516892  14.9803493484497 10.4389798511402  14.2059702194214 11.2709131202492  L 14.203003237915 11.2768554951436  L 9.68134119415283 16.3278789458404  L 5.15967917938232 11.2798266971073  L 5.15077826385498 11.2709131202492  C 4.37639913482666 10.4389798511402  3.93135367736816 9.35746660420186  3.82750973052979 8.05608525390625  Z M 6.98436564483643 7.73816792124155  C 6.98436564483643 9.22970541332348  8.1948893157959 10.4419510531039  9.68430817565918 10.4419510531039  C 11.1737270355225 10.4419510531039  12.3842507064819 9.22970541332348  12.3842507064819 7.73816792124155  C 12.3842507064819 6.24663042915963  11.1737270065308 5.03438478937922  9.68430817565918 5.03438478937922  C 8.1948893447876 5.03438478937922  6.98436564483643 6.24663042915963  6.98436564483643 7.73816792124155  Z M 8.28983234710693 7.73816792124155  C 8.28983234710693 6.96862963207348  8.91586298065186 6.34170848553632  9.68430817565918 6.34170848553632  C 10.4527533706665 6.34170848553632  11.0787840042114 6.96862963207348  11.0787840042114 7.73816792124155  C 11.0787840042114 8.50770621040963  10.4527533706665 9.13462735694679  9.68430817565918 9.13462735694679  C 8.91586298065185 9.13462735694679  8.28983234710693 8.50770621040963  8.28983234710693 7.73816792124155  Z M 18.8552118301392 19.667496801098  C 19.122239151001 18.835563531989  18.6801606460571 18.0155150126689  18.1846767059326 17.5252686338682  L 18.1698418563843 17.5133838840794  C 17.1314024169922 16.544775847234  15.2770462814331 16.0426447186444  14.7073880645752 15.8792292493666  C 14.3602525909424 15.7811799619932  13.9982822677612 15.9802497096706  13.9003722839355 16.3278789748733  C 13.8024622711182 16.675508240076  14.0012492492676 17.0379934570312  14.3483847229004 17.1360427153716  C 14.8498026260376 17.2816310309333  16.4727351028442 17.7273095835093  17.2738169494629 18.4641647672086  C 17.502273626709 18.692946418391  17.6951266708374 19.0346333086993  17.6150184890747 19.2901556614231  C 17.5052406082153 19.646698503484  16.8614081436157 20.0596939505912  15.8882420654297 20.243907746516  L 15.8852750839233 20.243907746516  C 15.882308102417 20.243907746516  15.4313287109375 20.3300722550676  14.5620065505981 20.4192079655828  C 13.7549907699585 20.5024013012035  12.0667849319458 20.6004505595439  10.2658342605591 20.6153065112965  C 10.138254548645 20.6153065112965  9.98397211914063 20.6153065112965  9.82078877410889 20.6153065112965  C 9.12355087432861 20.6153065112965  8.17115355072022 20.6123353093328  8.05840868835449 20.609364136402  C 6.77667772216797 20.5885658097551  5.59879070281983 20.5231996278505  4.55441732940674 20.4162367636191  C 3.68509516906738 20.3271010531039  3.23708273010254 20.2409365445524  3.23411574859619 20.2409365445524  L 3.23114876708984 20.2409365445524  C 2.25798265991211 20.0567227486275  1.6141502243042 19.6437273015203  1.50437234344483 19.2871844594595  C 1.42723111419678 19.028690904772  1.6200841583252 18.6870040144637  1.84557388305664 18.4611935652449  C 2.64368877716065 17.7213671795819  4.26958823547363 17.2756886560388  4.77100610961914 17.1330715134079  C 5.11814158325195 17.0350222260346  5.31692856140137 16.6725370090794  5.21901854858399 16.3249077729096  C 5.1211085357666 15.9772785077069  4.75913821258545 15.7782087600296  4.41200276794434 15.8762580474029  C 3.84531153259278 16.0396735166807  1.99095539703369 16.544775847234  0.949548976135256 17.5104126821157  L 0.934714126586915 17.5222974319046  C 0.439230157470705 18.0125438107052  0.000118634033204723 18.8325923300253  0.252311076354982 19.667496801098  C 0.519338368225098 20.5469691274282  1.43909901123047 21.2303428790118  2.98192330627441 21.5244907120988  C 3.02939483642578 21.5334042889569  3.51004392700195 21.6255111724029  4.42090365447998 21.7176180848818  C 5.50088066101074 21.8275521220439  6.71733829498291 21.8958895059122  8.03467289428711 21.9166878325591  C 8.14741775665283 21.9196590345228  8.90696200714111 21.9196590345228  9.81485478210449 21.9226302074535  C 9.91869872894287 21.9226302074535  10.0166087417603 21.9226302074535  10.1056178100586 21.9226302074535  C 10.1174856781006 21.9226302074535  10.1323205276489 21.9226302074535  10.1441884246826 21.9226302074535  C 10.1441884246826 21.9226302074535  10.147155406189 21.9226302074535  10.147155406189 21.9226302074535  C 10.185726020813 21.9226302074535  10.2272635879517 21.9226302074535  10.2658342025757 21.9226302074535  C 10.4557202651978 21.9226302074535  10.5922008926392 21.9226302074535  10.6337384597778 21.9226302074535  C 10.6337384597778 21.9226302074535  10.6367054412842 21.9226302074535  10.6367054412842 21.9226302074535  C 10.6693421218872 21.9226302074535  10.6990118209839 21.9196590054899  10.7316484725952 21.9166878325591  C 12.3516139968872 21.8899471310177  13.9241079910278 21.7948690456081  14.6866192520142 21.7176180848818  C 15.5974789794922 21.6255111724029  16.0810950805664 21.5334042889569  16.1255996002197 21.5244907120988  C 17.6684238952637 21.2333140809755  18.5881845382691 20.5469691274282  18.8552118301392 19.667496801098  Z " fill-rule="nonzero" fill="#70b603" stroke="none" transform="matrix(1 0 0 1 24 541 )" />
  </g>
</svg>