<?xml version="1.0" encoding="utf-8"?>
<svg version="1.1" xmlns:xlink="http://www.w3.org/1999/xlink" width="22px" height="16px" xmlns="http://www.w3.org/2000/svg">
  <g transform="matrix(1 0 0 1 -24 -610 )">
    <path d="M 1.17708332519531 14.3958333251953  L 2.0703125 1.88645832519531  C 2.09986516985323 1.57743149507698  2.35629307206699 1.3395918195881  2.66666667480469 1.33333332519531  L 19.3333333251953 1.33333332519531  C 19.6338541503906 1.33333332519531  19.9083333251953 1.5890625  19.9296875 1.88645832519531  L 20.8229166748047 14.3958333251953  C 20.8427083496094 14.6677083251953  20.6494791748047 14.875  20.3765625 14.875  L 1.6234375 14.875  C 1.61924409475248 14.8751210946159  1.61504915996549 14.8751816513864  1.61085400663385 14.8751816513864  C 1.37009237350449 14.8751816513864  1.17491650663385 14.6800057845158  1.17491650663385 14.4392441513864  C 1.17491650663385 14.424746848429  1.17563967811534 14.4102585696005  1.17708332519531 14.3958333251953  Z M 2.66666667480469 0.291666674804688  C 1.81614584960937 0.291666674804688  1.09166667480469 0.966145849609376  1.03125 1.8125  L 0.138020825195313 14.321875  C 0.13491635823128 14.3608779515516  0.133362287391787 14.3999888213837  0.133362287391787 14.439115128964  C 0.133362287391787 15.2551733809949  0.794908210165532 15.9167193037686  1.61096646219647 15.9167193037686  C 1.61512353032223 15.9167193037686  1.61928057993974 15.9167017606244  1.6234375 16  L 20.3765625 16  C 20.3820379937921 15.916727702429  20.387513785157 15.9167582169518  20.392989619033 15.9167582169518  C 21.2070343239245 15.9167582169518  21.8669479442283 15.256844596648  21.8669479442283 14.4427998917565  C 21.8669479442283 14.4024405675272  21.8652902907503 14.3620982714164  21.8619791748047 14.321875  L 20.96875 1.8125  C 20.9083333251953 0.9703125  20.1807291748047 0.291666674804688  19.3333333251953 0.291666674804688  L 2.66666667480469 0.291666674804688  Z " fill-rule="nonzero" fill="#a30014" stroke="none" transform="matrix(1 0 0 1 24 610 )" />
  </g>
</svg>