<?xml version="1.0" encoding="utf-8"?>
<svg version="1.1" xmlns:xlink="http://www.w3.org/1999/xlink" width="22px" height="16px" xmlns="http://www.w3.org/2000/svg">
  <g transform="matrix(1 0 0 1 -24 -660 )">
    <path d="M 21.2587890625 14.65771484375  C 21.92529296875 13.3662109375  21.80322265625 11.0859375  20.8974609375 7.8779296875  C 20.21875 5.4755859375  19.2861328125 3.244140625  18.96142578125 2.63623046875  C 18.55126953125 1.86962890625  17.9873046875 1.28125  17.2841796875 0.890625  C 16.556640625 0.4853515625  15.65576171875 0.27783203125  14.6083984375 0.27783203125  L 7.38671875 0.27783203125  C 6.33935546875 0.27783203125  5.4384765625 0.482910156250001  4.7109375 0.890625  C 4.01025390625 1.28125  3.4462890625 1.86962890625  3.03369140625 2.63623046875  C 2.70654296875 3.244140625  1.7763671875 5.4755859375  1.09765625 7.8779296875  C 0.19189453125 11.0859375  0.0698242187499996 13.3662109375  0.73876953125 14.65771484375  C 1.10986328125 15.373046875  1.72509765625 15.80517578125  2.5234375 15.9052734375  C 2.85302734375 15.94677734375  3.158203125 15.96630859375  3.44384765625 15.96630859375  C 5.58251953125 15.96630859375  6.5615234375 14.88720703125  7.435546875 13.92041015625  C 7.953125 13.34912109375  8.44384765625 12.80712890625  9.16650390625 12.5068359375  L 13.2265625 12.5068359375  C 13.9443359375 12.80712890625  14.36181640625 13.33203125  14.84033203125 13.93505859375  C 15.27978515625 14.4892578125  15.736328125 15.060546875  16.44921875 15.46337890625  C 17.25 15.9150390625  18.23876953125 16.0615234375  19.47412109375 15.9052734375  C 20.2724609375 15.80517578125  20.8876953125 15.373046875  21.2587890625 14.65771484375  Z M 19.720703125 8.21240234375  C 20.51904296875 11.02978515625  20.677734375 13.11962890625  20.17236328125 14.0986328125  C 19.984375 14.4599609375  19.72314453125 14.6455078125  19.3203125 14.6943359375  C 19.0419921875 14.728515625  18.7880859375 14.74560546875  18.55615234375 14.74560546875  C 17.044921875 14.74560546875  16.48095703125 14.03759765625  15.794921875 13.17333984375  C 15.2578125 12.49951171875  14.64990234375 11.73291015625  13.55615234375 11.32275390625  C 13.48779296875 11.2958984375  13.41455078125 11.28369140625  13.34130859375 11.28369140625  L 9.04931640625 11.28369140625  C 8.97607421875 11.28369140625  8.90283203125 11.2958984375  8.83447265625 11.32275390625  C 7.77978515625 11.71826171875  7.11572265625 12.453125  6.52978515625 13.10009765625  C 5.5849609375 14.142578125  4.84033203125 14.96533203125  2.67236328125 14.6943359375  C 2.26953125 14.64306640625  2.00830078125 14.4599609375  1.8203125 14.0986328125  C 1.31494140625 13.11962890625  1.4736328125 11.02978515625  2.26953125 8.21240234375  C 2.93603515625 5.8515625  3.841796875 3.71044921875  4.10791015625 3.21484375  C 4.73291015625 2.04541015625  5.775390625 1.50341796875  7.38427734375 1.50341796875  L 14.60595703125 1.50341796875  C 16.21484375 1.50341796875  17.25732421875 2.0478515625  17.88232421875 3.21484375  C 18.1484375 3.71044921875  19.05419921875 5.8515625  19.720703125 8.21240234375  Z " fill-rule="nonzero" fill="#f59a23" stroke="none" transform="matrix(1 0 0 1 24 660 )" />
  </g>
</svg>