<?xml version="1.0" encoding="utf-8"?>
<svg version="1.1" xmlns:xlink="http://www.w3.org/1999/xlink" width="6px" height="6px" xmlns="http://www.w3.org/2000/svg">
  <g transform="matrix(1 0 0 1 -29 -664 )">
    <path d="M 5.97230113636364 2.85009765625  C 5.97230113636364 2.58154296875  5.73259943181818 2.36181640625  5.43963068181818 2.36181640625  L 3.56729403409091 2.36181640625  L 3.56729403409091 0.640625  C 3.56729403409091 0.3720703125  3.32759232954545 0.15234375  3.03462357954545 0.15234375  C 2.74165482954545 0.15234375  2.501953125 0.3720703125  2.501953125 0.640625  L 2.501953125 2.36181640625  L 0.645596590909091 2.36181640625  C 0.352627840909091 2.36181640625  0.112926136363636 2.58154296875  0.112926136363636 2.85009765625  C 0.112926136363636 3.11865234375  0.352627840909091 3.33837890625  0.645596590909091 3.33837890625  L 2.501953125 3.33837890625  L 2.501953125 5.03515625  C 2.501953125 5.3037109375  2.74165482954545 5.5234375  3.03462357954545 5.5234375  C 3.32759232954545 5.5234375  3.56729403409091 5.3037109375  3.56729403409091 5.03515625  L 3.56729403409091 3.33837890625  L 5.43963068181818 3.33837890625  C 5.73259943181818 3.33837890625  5.97230113636364 3.11865234375  5.97230113636364 2.85009765625  Z " fill-rule="nonzero" fill="#f59a23" stroke="none" transform="matrix(1 0 0 1 29 664 )" />
  </g>
</svg>