<?xml version="1.0" encoding="utf-8"?>
<svg version="1.1" xmlns:xlink="http://www.w3.org/1999/xlink" width="13px" height="23px" xmlns="http://www.w3.org/2000/svg">
  <g transform="matrix(1 0 0 1 -30 -39 )">
    <path d="M 12.6601041666667 22.6002604166667  C 12.4671354166667 22.7858072916667  12.20984375 22.8802083333333  11.9559375 22.8802083333333  C 11.6986458333333 22.8802083333333  11.4447395833333 22.7858072916667  11.2483854166667 22.6002604166667  L 0.404895833333333 12.173828125  C 0.0121874999999988 11.7994791666667  0.0121874999999988 11.1875  0.404895833333333 10.8131510416667  L 11.245 0.389973958333335  C 11.4413541666667 0.201171875000001  11.6952604166667 0.110026041666668  11.9525520833333 0.110026041666668  C 12.2064583333333 0.110026041666668  12.46375 0.204427083333336  12.6601041666667 0.389973958333335  C 13.0494270833333 0.764322916666668  13.0494270833333 1.373046875  12.6601041666667 1.75065104166667  L 2.52416666666667 11.4934895833333  L 12.6601041666667 21.2395833333333  C 13.0494270833333 21.6171875  13.0494270833333 22.2259114583333  12.6601041666667 22.6002604166667  Z " fill-rule="nonzero" fill="#666666" stroke="none" transform="matrix(1 0 0 1 30 39 )" />
  </g>
</svg>