<?xml version="1.0" encoding="utf-8"?>
<svg version="1.1" xmlns:xlink="http://www.w3.org/1999/xlink" width="12px" height="12px" xmlns="http://www.w3.org/2000/svg">
  <g transform="matrix(1 0 0 1 -347 -47 )">
    <path d="M 11.9659090909091 6  C 11.9659090909091 2.67613636363637  9.32386363636363 0.0340909090909091  6 0.0340909090909091  C 2.67613636363636 0.0340909090909091  0.0340909090909091 2.67613636363636  0.0340909090909091 6  C 0.0340909090909091 9.32386363636363  2.67613636363636 11.9659090909091  6 11.9659090909091  C 9.32386363636363 11.9659090909091  11.9659090909091 9.32386363636363  11.9659090909091 6  Z M 10.6875 6  C 10.6875 8.55681818181818  8.55681818181818 10.6875  6 10.6875  C 3.44318181818182 10.6875  1.3125 8.55681818181818  1.3125 6  C 1.3125 3.44318181818182  3.44318181818182 1.3125  6 1.3125  C 8.55681818181818 1.3125  10.6875 3.44318181818182  10.6875 6  Z " fill-rule="nonzero" fill="#7f7f7f" stroke="none" transform="matrix(1 0 0 1 347 47 )" />
  </g>
</svg>