<?xml version="1.0" encoding="utf-8"?>
<svg version="1.1" xmlns:xlink="http://www.w3.org/1999/xlink" width="24px" height="20px" xmlns="http://www.w3.org/2000/svg">
  <g transform="matrix(1 0 0 1 -341 -42 )">
    <path d="M 24 5.20833333333333  C 23.9318181818182 3.73263888888889  22.8238636363636 2.60416666666667  21.375 2.60416666666667  L 18.8181818181818 2.60416666666667  L 18.2215909090909 0.781250000000001  C 18.0511363636364 0.347222222222223  17.5397727272727 0  17.1136363636364 0  L 6.88636363636364 0  C 6.375 0  5.94886363636364 0.347222222222223  5.77840909090909 0.781250000000001  L 5.18181818181818 2.60416666666667  L 2.625 2.60416666666667  C 1.17613636363636 2.60416666666667  0.0681818181818175 3.73263888888889  0 5.20833333333333  L 0 17.3611111111111  C 0.0681818181818175 18.8368055555556  1.26136363636364 19.9652777777778  2.625 20  L 21.375 20  C 22.8238636363636 19.9652777777778  23.9318181818182 18.8368055555556  24 17.3611111111111  L 24 5.20833333333333  Z M 22.6534090909091 5.20833333333333  L 22.6534090909091 17.3611111111111  C 22.6534090909091 18.0555555555556  22.0568181818182 18.6631944444444  21.375 18.6631944444444  L 2.625 18.6631944444444  C 1.94318181818182 18.6631944444444  1.34659090909091 18.0555555555556  1.34659090909091 17.3611111111111  L 1.34659090909091 5.20833333333333  C 1.34659090909091 4.51388888888889  1.94318181818182 3.90625  2.625 3.90625  L 5.18181818181818 3.90625  L 6.11931818181818 3.90625  L 6.375 3.03819444444444  L 6.97159090909091 1.30208333333333  L 17.0284090909091 1.30208333333333  L 17.625 3.03819444444444  L 17.8806818181818 3.90625  L 18.8181818181818 3.90625  L 21.375 3.90625  C 22.0568181818182 3.90625  22.6534090909091 4.51388888888889  22.6534090909091 5.20833333333333  Z " fill-rule="nonzero" fill="#7f7f7f" stroke="none" transform="matrix(1 0 0 1 341 42 )" />
  </g>
</svg>