<?xml version="1.0" encoding="utf-8"?>
<svg version="1.1" xmlns:xlink="http://www.w3.org/1999/xlink" width="22px" height="9px" xmlns="http://www.w3.org/2000/svg">
  <g transform="matrix(1 0 0 1 -305 -398 )">
    <path d="M 4.19714596215958 0.353378628149413  C 6.51558513222538 0.356307308195554  8.39313166277744 2.28008795675577  8.39169787946896 4.65122034689941  C 8.38740558627422 7.01734553105066  6.51070172346621 8.933144150604  4.19715318116685 8.933144150604  C 1.88056612486337 8.933144150604  0.00260126385747486 7.01249821696313  0.00260126385747486 4.64326138937353  C 0.00260126385747486 2.27402456178393  1.88056612486337 0.35337862814306  4.19715318116685 0.35337862814306  Z M 22 4.3434728564994  C 22 4.3452417892081  21.9999989308464 4.3470107217437  21.9999967925397 4.34877965310059  C 21.995704487629 6.71490482873778  20.1190006282734 8.63070343505224  17.8054520942771 8.63070343505224  C 15.4888650379736 8.63070343505224  13.6109001769677 6.71005750141138  13.6109001769677 4.34082067382177  C 13.6109001769677 1.97158384623217  15.4888650379736 0.0509379125913009  17.8054520942771 0.0509379125913009  C 20.1224524211691 0.0524006739034214  22 1.9738055312093  22 4.3434728564994  Z " fill-rule="nonzero" fill="#8d96ab" stroke="none" transform="matrix(1 0 0 1 305 398 )" />
  </g>
</svg>