<?xml version="1.0" encoding="utf-8"?>
<svg version="1.1" xmlns:xlink="http://www.w3.org/1999/xlink" width="11px" height="21px" xmlns="http://www.w3.org/2000/svg">
  <g transform="matrix(1 0 0 1 -34 -44 )">
    <path d="M 10.7123958333333 20.6350203804348  C 10.5491145833333 20.8044327445652  10.33140625 20.890625  10.1165625 20.890625  C 9.89885416666667 20.890625  9.68401041666667 20.8044327445652  9.51786458333333 20.6350203804348  L 0.342604166666667 11.115234375  C 0.010312499999999 10.7734375  0.010312499999999 10.2146739130435  0.342604166666667 9.87287703804348  L 9.515 0.356063179347827  C 9.68114583333333 0.183678668478262  9.89598958333333 0.10045855978261  10.1136979166667 0.10045855978261  C 10.3285416666667 0.10045855978261  10.54625 0.186650815217393  10.7123958333333 0.356063179347827  C 11.0418229166667 0.697860054347827  11.0418229166667 1.25365149456522  10.7123958333333 1.59842051630435  L 2.13583333333333 10.4940557065217  L 10.7123958333333 19.3926630434783  C 11.0418229166667 19.7374320652174  11.0418229166667 20.2932235054348  10.7123958333333 20.6350203804348  Z " fill-rule="nonzero" fill="#666666" stroke="none" transform="matrix(1 0 0 1 34 44 )" />
  </g>
</svg>