<?xml version="1.0" encoding="utf-8"?>
<svg version="1.1" xmlns:xlink="http://www.w3.org/1999/xlink" width="28px" height="28px" xmlns="http://www.w3.org/2000/svg">
  <g transform="matrix(1 0 0 1 -26 -739 )">
    <path d="M 27.0505267285156 14  C 27.0505267285156 6.79243671875  21.20754828125 0.949458271484375  13.9999550292969 0.949458271484375  C 6.79239174804688 0.949458271484375  0.949443271484375 6.79243671875  0.949443271484375 14  C 0.949443271484375 21.20753328125  6.79239174804688 27.0505117578125  13.9999550292969 27.0505117578125  C 21.20754828125 27.0505117578125  27.0505267285156 21.2075333105469  27.0505267285156 14  Z M 26.2404459863281 14  C 26.2404459863281 20.7603265039062  20.7601616210938 26.2404909570313  13.9999550292969 26.2404909570313  C 7.2397784375 26.2404909570313  1.7594341015625 20.7603265039062  1.7594341015625 14  C 1.7594341015625 7.23964352539062  7.2397784375 1.75947907226563  13.9999550292969 1.75947907226563  C 20.7601616210938 1.75947907226563  26.2404459863281 7.23964352539062  26.2404459863281 14  Z M 19.0226596191406 13.9480451855469  C 19.0226296484375 10.9436322265625  17.7346729003906 8.24030506835938  15.681754765625 6.35866083007812  C 15.5241816113281 6.184388984375  15.2986445117188 6.07259477539063  15.0450764257813 6.07259477539063  C 14.56965875 6.07259477539063  14.1844199609375 6.45801344726562  14.1844199609375 6.93319129882813  C 14.1844199609375 7.17078022460938  14.2806547167969 7.386004296875  14.4365190429688 7.54183862304688  L 14.434510390625 7.54369736328125  C 16.1967456054687 9.11496204101563  17.3074925 11.4013918554688  17.3074925 13.9480452148438  C 17.3074925 16.4358784765625  16.2475311523437 18.6751202539063  14.5558081542969 20.2422177734375  C 14.3320698535156 20.398291953125  14.1844199609375 20.6569865527344  14.1844199609375 20.9507273925781  C 14.1844199609375 21.4258452734375  14.5696587792969 21.8113538867188  15.0450764257812 21.8113538867188  C 15.2827852636719 21.8113538867188  15.4979493652344 21.7151491015625  15.6536638085938 21.5592847753906  L 15.6563319921875 21.5620129296875  C 17.72438984375 19.6789596289062  19.0226596191406 16.9651096191406  19.0226596191406 13.9480451855469  Z M 11.4031156835937 14.0645762011719  C 11.4030557421875 13.3048912695313  11.0799048242188 12.623843046875  10.5677320800781 12.1407205859375  C 10.5674322851562 12.1405107324219  10.5673123730469 12.1405107324219  10.5670725195312 12.1402708789062  C 10.5551106347656 12.1289085839844  10.5442579882813 12.1159573730469  10.5319963085937 12.1048648730469  L 10.5288484472656 12.1085523828125  C 10.4018845214844 11.9978974121094  10.237895703125 11.9284944628906  10.0561888964844 11.9284944628906  C 9.65670974609375 11.9284944628906  9.33301920898438 12.2525747363281  9.33301920898438 12.6518140625  C 9.33301920898438 12.8621814453125  9.42442724609375 13.0496743261719  9.56773006835938 13.1820345605469  L 9.56206390625 13.1880904589844  C 9.79893330078125 13.4067322167969  9.94967111328125 13.7170818066406  9.94967111328125 14.0645762011719  C 9.94967111328125 14.4239425390625  9.787810859375 14.7427763867187  9.53676107421875 14.9618978222656  L 9.54017875976563 14.9653454785156  C 9.41243536132812 15.0964166210937  9.3330491796875 15.2746458007812  9.3330491796875 15.47191203125  C 9.3330491796875 15.8710314160156  9.65673971679687 16.1949018359375  10.0562188671875 16.1949018359375  C 10.2330090136719 16.1949018359375  10.3928306445312 16.1289765429687  10.5183255664062 16.0235380273437  L 10.5282188574219 16.0280050097656  C 11.0642854003906 15.5430238378906  11.4031156835937 14.8443175390625  11.4031156835937 14.0645762011719  Z M 15.2499875292969 14.1444420898438  C 15.2499575292969 12.3173908203125  14.5261582519531 10.6609538867187  13.3515546582031 9.44120087890625  C 13.1999174609375 9.24522374023438  12.9651166601562 9.11712060546875  12.6982975683594 9.11712060546875  C 12.2405079394531 9.11712060546875  11.8692696582031 9.48805912109375  11.8692696582031 9.94608857421875  C 11.8692696582031 10.1849965917969  11.9717101953125 10.3986017773437  12.1332107128906 10.5496993261719  L 12.1294032910156 10.5538665136719  C 13.0367381152344 11.4796987988281  13.5977177832031 12.7459203125  13.5977177832031 14.1444720898438  C 13.5977177832031 15.5061188867187  13.0636598632813 16.7407717871094  12.1982066503906 17.6594389355469  C 12.2001853027344 17.6618073242187  12.2023138671875 17.6641157714844  12.2042925195313 17.6668139257812  C 12.0327188574219 17.8186609765625  11.9223936523438 18.0377824121094  11.9223936523438 18.2851446875  C 11.9223936523438 18.7432041113281  12.2936919042969 19.1141426269531  12.7514215625 19.1141426269531  C 13.0132340527344 19.1141426269531  13.2439876074219 18.9902366210938  13.3959845410156 18.8006152050781  C 14.5442360351563 17.5855690039063  15.2499875292969 15.9483490332031  15.2499875292969 14.1444420898438  Z " fill-rule="nonzero" fill="#555555" stroke="none" transform="matrix(1 0 0 1 26 739 )" />
  </g>
</svg>