<?xml version="1.0" encoding="utf-8"?>
<svg version="1.1" xmlns:xlink="http://www.w3.org/1999/xlink" width="28px" height="28px" xmlns="http://www.w3.org/2000/svg">
  <g transform="matrix(1 0 0 1 -294 -739 )">
    <path d="M 14 0.874999999999999  C 21.2487373415292 0.874999999999999  27.125 6.75126265847084  27.125 14  C 27.125 21.2487373415292  21.2487373415292 27.125  14 27.125  C 6.75126265847084 27.125  0.874999999999999 21.2487373415292  0.874999999999999 14  C 0.874999999999999 6.75126265847084  6.75126265847084 0.874999999999999  14 0.874999999999999  Z M 13.9999998323619 2.75  C 7.78679639676551 2.75  2.74999983236194 7.78679656440357  2.74999983236194 14  C 2.74999983236194 20.2132034355964  7.78679639676551 25.25  13.9999998323619 25.25  C 20.2132032679584 25.25  25.2499998323619 20.2132034355964  25.2499998323619 14  C 25.2499998323619 7.78679656440358  20.2132032679584 2.75  13.9999998323619 2.75  Z M 9.29375 16.90625  L 7.28 16.90625  L 9.29375 16.90625  C 10.334375 18.67625  11.699375 19.7225  14 19.7225  C 16.165625 19.7225  17.45375 18.929375  18.54125 17.234375  L 18.741875 16.90625  L 20.72 16.90625  C 19.6398177356959 19.674912640586  16.9721073900818 21.4976693771497  14.0001910821259 21.4976693771497  C 11.16515614819 21.4976693771497  8.59301610622798 19.836936125062  7.42625 17.253125  L 7.28 16.90625  L 9.29375 16.90625  Z M 18.62375 9.545  C 19.4004004294496 9.545  20.03 10.1745995705504  20.03 10.95125  C 20.03 11.7279004294496  19.4004004294496 12.3575  18.62375 12.3575  C 17.8470995705504 12.3575  17.2175 11.7279004294496  17.2175 10.95125  C 17.2175 10.1745995705504  17.8470995705504 9.545  18.62375 9.545  Z M 9.389375 9.545  C 10.1660254294496 9.545  10.795625 10.1745995705504  10.795625 10.95125  C 10.795625 11.7279004294496  10.1660254294496 12.3575  9.389375 12.3575  C 8.61272457055045 12.3575  7.983125 11.7279004294496  7.983125 10.95125  C 7.983125 10.1745995705504  8.61272457055045 9.545  9.389375 9.545  Z " fill-rule="nonzero" fill="#555555" stroke="none" transform="matrix(1 0 0 1 294 739 )" />
  </g>
</svg>