<?xml version="1.0" encoding="utf-8"?>
<svg version="1.1" xmlns:xlink="http://www.w3.org/1999/xlink" width="28px" height="28px" xmlns="http://www.w3.org/2000/svg">
  <g transform="matrix(1 0 0 1 -335 -739 )">
    <path d="M 27.5601962304687 13.898039140625  C 27.5601362304688 12.1292683496094  27.22457375 10.4049274707031  26.5627724316406 8.772893984375  C 25.8774670800781 7.08290978515625  24.8708095800781 5.56689763671875  23.5707710058594 4.2668590625  C 22.2707324316406 2.96682048828125  20.7546303417969 1.96013301757813  19.0646761425781 1.27482766601563  C 17.43264265625 0.612996376953125  15.7082418066406 0.277433896484375  13.9394710449219 0.277433896484375  C 12.1706702832031 0.277433896484375  10.4463294042969 0.612996376953125  8.81429591796875 1.27482766601562  C 7.12434171875 1.96013301757812  5.6082995703125 2.96682048828125  4.30826099609375 4.2668590625  C 3.008222421875 5.56689763671875  2.001594921875 7.08293975585937  1.31628954101563 8.772893984375  C 0.654488251953125 10.4049274707031  0.318925771484375 12.1292683496094  0.318925771484375 13.898039140625  C 0.318925771484375 15.6668399023437  0.654488251953125 17.3911508105469  1.31631954101562 19.0232142675781  C 2.00162489257812 20.7131684667969  3.008252421875 22.2292106152344  4.30829099609375 23.5292491894531  C 5.6083295703125 24.8292877636719  7.12437168945312 25.8359152636719  8.81432591796875 26.5212506152344  C 10.4463594042969 27.1830519042969  12.1707302832031 27.5186443847656  13.9395010449219 27.5186443847656  C 15.7082718066406 27.5186443847656  17.4326426855469 27.1830819042969  19.064676171875 26.5212506152344  C 20.7546603710937 25.8359452636719  22.2707324609375 24.8292877636719  23.5708310058594 23.5292491894531  C 24.870839609375 22.2292405859375  25.877467109375 20.7131684960938  26.5628024609375 19.0232142675781  C 27.22460375 17.39118078125  27.5601962304687 15.6668399023437  27.5601962304687 13.898039140625  Z M 26.4593125976563 13.8980391699219  C 26.4593425683594 15.5243464941406  26.1508816894531 17.1095217382812  25.5426241015625 18.6095247558594  C 24.9129909863281 20.16223203125  23.9876683496094 21.5555973242187  22.7924087597656 22.7508569433594  C 21.5970891992188 23.9461465332031  20.20369390625 24.8714691699219  18.6509866308594 25.5011022851563  C 17.1509536425781 26.1093598730469  15.5657783984375 26.41779078125  13.9394710449219 26.41779078125  C 12.3131336914063 26.41779078125  10.7279584472656 26.1093599023437  9.2279854296875 25.5011022851563  C 7.67527815429688 24.8714691699219  6.28194283203125 23.9461465332031  5.0866532421875 22.7508869433594  C 3.89136365234375 21.5555973535156  2.96607098632813 20.1622320605469  2.33640790039063 18.6095247851563  C 1.7281203125 17.109521796875  1.41971940429688 15.5243465234375  1.41971940429688 13.8980391699219  C 1.41971940429688 12.2717318164062  1.72815028320313 10.6865565429687  2.33640790039063 9.1865535546875  C 2.966041015625 7.63384627929687  3.89136365234375 6.24051095703125  5.0866532421875 5.0452213671875  C 6.28194283203125 3.84990180664062  7.67527815429688 2.92457916992187  9.2279854296875 2.29491608398437  C 10.7279884179688 1.68662849609375  12.3131636914063 1.3781976171875  13.9394710449219 1.3781976171875  C 15.5657783984375 1.3781976171875  17.150953671875 1.68662849609375  18.6509866308594 2.29491608398437  C 20.20369390625 2.92454919921875  21.5970891699219 3.84990180664062  22.7923787597656 5.0452213671875  C 23.9876683496094 6.24051095703125  24.9129909863281 7.63384627929687  25.5426241015625 9.1865535546875  C 26.1508816894531 10.6865565429687  26.4593125976563 12.2717318164062  26.4593125976563 13.8980391699219  Z " fill-rule="nonzero" fill="#555555" stroke="none" transform="matrix(1 0 0 1 335 739 )" />
  </g>
</svg>