<?xml version="1.0" encoding="utf-8"?>
<svg version="1.1" xmlns:xlink="http://www.w3.org/1999/xlink" width="20px" height="20px" xmlns="http://www.w3.org/2000/svg">
  <g transform="matrix(1 0 0 1 -339 -743 )">
    <path d="M 19.2916002929687 9.87687349609375  C 19.2909707324219 9.57329930664063  19.0447176953125 9.32770583007813  18.7412933886719 9.32770583007813  C 18.7408736816406 9.32770583007813  18.7404239746094 9.32770583007813  18.7400342382813 9.32770583007813  L 10.4910370703125 9.346323203125  L 10.5083353515625 1.080267578125  C 10.5089649121094 0.776273681640625  10.2630416699219 0.529361083984376  9.95907774414063 0.528701552734375  C 9.95865803710937 0.528701552734375  9.9583282421875 0.528701552734375  9.95790853515625 0.528701552734375  C 9.6544842578125 0.528701552734375  9.40817125 0.774384970703126  9.40754168945312 1.07795916015625  L 9.3902134375 9.34881153320313  L 1.13653943359375 9.36745887695313  C 0.832545537109372 9.36814840820313  0.586712207031248 9.6151209765625  0.587371767578122 9.91911484375  C 0.588061298828123 10.2226890332031  0.834344306640622 10.4682825097656  1.13773861328125 10.4682825097656  C 1.1381583203125 10.4682825097656  1.13860802734375 10.4682825097656  1.13899776367187 10.4682825097656  L 9.38787501953125 10.4496651367187  L 9.37057673828125 18.7158406738281  C 9.36994717773437 19.0198045996094  9.61587041992187 19.2667471679687  9.91983434570312 19.2673767285156  C 9.92025405273437 19.2673767285156  9.92058384765625 19.2673767285156  9.9210035546875 19.2673767285156  C 10.2243978613281 19.2673767285156  10.4707408398437 19.0216933105469  10.4713704003906 18.7181191210938  L 10.4886686816406 10.4471768066406  L 18.7424326269531 10.4285294628906  C 19.0464265234375 10.4278399316406  19.2922898242187 10.1808673632813  19.2916002929687 9.87687349609375  Z " fill-rule="nonzero" fill="#555555" stroke="none" transform="matrix(1 0 0 1 339 743 )" />
  </g>
</svg>