<?xml version="1.0" encoding="utf-8"?>
<svg version="1.1" xmlns:xlink="http://www.w3.org/1999/xlink" width="9px" height="13px" xmlns="http://www.w3.org/2000/svg">
  <g transform="matrix(1 0 0 1 -117 -525 )">
    <path d="M 6.58883390646701 12.7134867661482  C 9.80253397930435 9.24999899375409  9.80253397930435 3.74646523000079  6.58883390646702 0.282977457380023  C 6.19943897124097 -0.0808564077796218  5.61049425684063 -0.0808564077796218  5.22109932161458 0.282977457380022  C 4.86644988477268 0.68719353301434  4.86644988477268 1.30755554627905  5.22109932161459 1.71177162191336  C 7.74230532210516 4.35928333787501  7.74230532210516 8.6371808657034  5.22109932161459 11.284692581665  C 4.87281390084361 11.6914712224329  4.87281390084361 12.3067081253803  5.22109932161458 12.7134867661482  C 5.60804120598248 13.0839687671348  6.20189202209912 13.0839687671348  6.58883390646701 12.7134867661482  Z M 1.7850080264383 4.62651174098424  C 1.32897797315007 4.62651174098424  0.891846857968417 4.81683445296812  0.570801699001736 5.15516557760184  C 0.250066128116915 5.48778796755342  0.0696817829224277 5.9403827301493  0.0696817829224277 6.41250445146833  C 0.0696817829224277 6.88462617278737  0.250066128116915 7.33722093538324  0.570801699001736 7.66984332533482  C 0.891846857968418 8.00817444996855  1.32897797315007 8.19849716195243  1.7850080264383 8.19849716195243  C 2.72923172027287 8.19849716195243  3.49467626211538 7.39888098877766  3.49467626211538 6.41250445146833  C 3.49467626211538 5.426127914159  2.72923172027287 4.62651174098424  1.7850080264383 4.62651174098424  Z " fill-rule="nonzero" fill="#000000" stroke="none" transform="matrix(1 0 0 1 117 525 )" />
  </g>
</svg>