<?xml version="1.0" encoding="utf-8"?>
<svg version="1.1" xmlns:xlink="http://www.w3.org/1999/xlink" width="23px" height="23px" xmlns="http://www.w3.org/2000/svg">
  <g transform="matrix(1 0 0 1 -340 -45 )">
    <path d="M 23 11.5  C 23 5.15927734375  17.84072265625 0  11.5 0  C 5.15927734375 0  0 5.15927734375  0 11.5  C 0 17.84072265625  5.15927734375 23  11.5 23  C 17.84072265625 23  23 17.84072265625  23 11.5  Z M 22.00048828125 11.5  C 22.00048828125 17.2904296875  17.2904296875 22.00048828125  11.5 22.00048828125  C 5.7095703125 22.00048828125  0.99951171875 17.2904296875  0.99951171875 11.5  C 0.99951171875 5.7095703125  5.7095703125 0.99951171875  11.5 0.99951171875  C 17.2904296875 0.99951171875  22.00048828125 5.7095703125  22.00048828125 11.5  Z " fill-rule="nonzero" fill="#333333" stroke="none" transform="matrix(1 0 0 1 340 45 )" />
  </g>
</svg>