<?xml version="1.0" encoding="utf-8"?>
<svg version="1.1" xmlns:xlink="http://www.w3.org/1999/xlink" width="8px" height="11px" xmlns="http://www.w3.org/2000/svg">
  <g transform="matrix(1 0 0 1 -258 -338 )">
    <path d="M 5.80922659530118 10.6965651774923  C 8.65963883381777 7.79034370693853  8.65963883381777 3.1723144141481  5.80922659530118 0.266092943404134  C 5.46385021797026 -0.03920098575867  4.94148186258908 -0.03920098575867  4.59610548525815 0.266092943404134  C 4.28154685432011 0.605271688920366  4.28154685432011 1.12581904492261  4.59610548525815 1.46499779043884  C 6.8323055900411 3.68653165979384  6.8323055900411 7.27612644436266  4.59610548525815 9.49766031371765  C 4.28719145987868 9.83898931420812  4.28719145987868 10.3552361770018  4.59610548525815 10.6965651774923  C 4.93930611313228 11.007437574474  5.46602596742704 11.007437574474  5.80922659530118 10.6965651774923  Z M 1.54844190171049 3.91076369804382  C 1.14396307183745 3.91076369804382  0.756246778371987 4.07046397367645  0.471493680853714 4.35435848787231  C 0.187015174503698 4.63346278815861  0.0270221031138058 5.0132362139522  0.0270221031138058 5.40939476087952  C 0.0270221031138058 5.80555330780684  0.187015174503698 6.18532673360043  0.471493680853714 6.46443103388672  C 0.756246778371988 6.74832554808259  1.14396307183745 6.90802582371521  1.54844190171049 6.90802582371521  C 2.38592726493768 6.90802582371521  3.06484329335451 6.23706584250639  3.06484329335451 5.40939476087952  C 3.06484329335451 4.58172367925265  2.38592726493768 3.91076369804382  1.54844190171049 3.91076369804382  Z " fill-rule="nonzero" fill="#000000" stroke="none" transform="matrix(1 0 0 1 258 338 )" />
  </g>
</svg>