<?xml version="1.0" encoding="utf-8"?>
<svg version="1.1" xmlns:xlink="http://www.w3.org/1999/xlink" width="13px" height="13px" xmlns="http://www.w3.org/2000/svg">
  <g transform="matrix(1 0 0 1 -345 -50 )">
    <path d="M 12.9478824013158 6.5  C 12.9478824013158 6.22604851973684  12.722930372807 6.00332373903509  12.4512061403509 6.00332373903509  L 6.99667626096491 6.00332373903509  L 6.99667626096491 0.55102110745614  C 6.99667626096491 0.277069627192982  6.77172423245614 0.0543448464912281  6.5 0.0543448464912281  C 6.22604851973684 0.0543448464912281  6.00332373903509 0.279296875  6.00332373903509 0.55102110745614  L 6.00332373903509 6.00332373903509  L 0.55102110745614 6.00332373903509  C 0.277069627192982 6.00332373903509  0.0543448464912281 6.22827576754386  0.0543448464912281 6.5  C 0.0543448464912281 6.77395148026316  0.279296875 6.99667626096491  0.55102110745614 6.99667626096491  L 6.00332373903509 6.99667626096491  L 6.00332373903509 12.4512061403509  C 6.00332373903509 12.725157620614  6.22827576754386 12.9478824013158  6.5 12.9478824013158  C 6.77395148026316 12.9478824013158  6.99667626096491 12.722930372807  6.99667626096491 12.4512061403509  L 6.99667626096491 6.99667626096491  L 12.4489788925439 6.99667626096491  C 12.722930372807 6.99667626096491  12.9456551535088 6.77172423245614  12.9478824013158 6.5  Z " fill-rule="nonzero" fill="#333333" stroke="none" transform="matrix(1 0 0 1 345 50 )" />
  </g>
</svg>