<?xml version="1.0" encoding="utf-8"?>
<svg version="1.1" xmlns:xlink="http://www.w3.org/1999/xlink" width="20px" height="20px" xmlns="http://www.w3.org/2000/svg">
  <g transform="matrix(1 0 0 1 -145 -91 )">
    <path d="M 19.7117043711656 19.6980444785276  C 19.9882572852761 19.4135832055215  19.9820264570552 18.9584930981595  19.6975651840491 18.6814608895706  L 14.5171108128834 13.6407208588957  C 15.7666315184049 12.1970858895706  16.5224789110429 10.3146568251534  16.5224789110429 8.25560774539877  C 16.5224789110429 3.70878067484663  12.8364647239264 0.0227664877300605  8.28963765337423 0.0227664877300605  C 3.74281058282209 0.0227664877300605  0.056796395705521 3.70878067484663  0.056796395705521 8.25560774539877  C 0.056796395705521 12.8024348159509  3.74281058282208 16.4884490030675  8.28963765337423 16.4884490030675  C 10.2595379601227 16.4884490030675  12.0676763803681 15.7961081288344  13.484710506135 14.6422066717791  L 18.6951207822086 19.7119440184049  C 18.8292143322336 19.8427195349423  19.0091574930736 19.9158321958954  19.1964628067485 19.9156441717791  C 19.3838669478528 19.9156441717791  19.5707917944785 19.8427914110429  19.7117043711656 19.6980444785276  Z M 13.0943251533742 13.0602952453988  C 12.4698044478528 13.6848159509202  11.7429543711656 14.175134202454  10.933905291411 14.5171108128834  C 10.0970571319018 14.8710697852761  9.20724693251534 15.0505655674847  8.28939800613497 15.0505655674847  C 7.3715490797546 15.0505655674847  6.4817388803681 14.8710697852761  5.64489072085889 14.5171108128834  C 4.83584164110429 14.1748945552147  4.10899156441718 13.6848159509202  3.4844708588957 13.0602952453988  C 2.85995015337423 12.4357745398773  2.36987154907975 11.7089244631902  2.02765529141104 10.8998753834356  C 1.6736963190184 10.0630272239264  1.49420053680981 9.17321702453988  1.49420053680981 8.25536809815951  C 1.49420053680981 7.33751917177914  1.6736963190184 6.44770897239264  2.02765529141104 5.61086081288344  C 2.36987154907975 4.80181173312883  2.85995015337423 4.07496165644172  3.4844708588957 3.45044095092024  C 4.10899156441718 2.82592024539877  4.83584164110429 2.33584164110429  5.64489072085889 1.99362538343558  C 6.4817388803681 1.63966641104294  7.3715490797546 1.46017062883436  8.28939800613497 1.46017062883436  C 9.20724693251534 1.46017062883436  10.0970571319018 1.63966641104294  10.933905291411 1.99362538343558  C 11.7429543711656 2.33584164110429  12.4698044478528 2.82592024539877  13.0943251533742 3.45044095092024  C 13.7188458588957 4.07496165644172  14.2089244631902 4.80181173312883  14.5511407208589 5.61086081288344  C 14.9050996932515 6.44770897239264  15.0845954754601 7.33751917177914  15.0845954754601 8.25536809815951  C 15.0845954754601 9.17321702453988  14.9050996932515 10.0630272239264  14.5511407208589 10.8998753834356  C 14.2089244631902 11.7089244631902  13.7188458588957 12.4357745398773  13.0943251533742 13.0602952453988  Z " fill-rule="nonzero" fill="#aaaaaa" stroke="none" transform="matrix(1 0 0 1 145 91 )" />
  </g>
</svg>