<?xml version="1.0" encoding="utf-8"?>
<svg version="1.1" xmlns:xlink="http://www.w3.org/1999/xlink" width="29px" height="29px" xmlns="http://www.w3.org/2000/svg">
  <g transform="matrix(1 0 0 1 -36 -257 )">
    <path d="M 28.8580731343284 16.095  C 29.0023517412935 15.225  28.2809587064677 14.5  27.4152870646766 14.5  C 26.6938940298507 14.5  26.1167796019901 15.08  25.9725009950249 15.805  C 25.3953865671642 21.605  20.4899139303483 26.1  14.4302124378109 26.1  C 7.36056069651741 26.1  1.73369502487562 19.575  3.17648109452736 12.18  C 4.04215273631841 7.83  7.36056069651741 4.205  11.6889189054726 3.19  C 13.9973766169154 2.61  16.3058343283582 2.755  18.3257348258706 3.48  C 19.3356850746269 3.915  20.3456353233831 3.19  20.3456353233831 2.175  C 20.3456353233831 1.595  20.0570781094527 1.015  19.479963681592 0.870000000000001  C 17.7486203980099 0.290000000000001  15.7287199004975 0  13.7088194029851 0  C 6.35061044776119 0.435  0.290908955223881 6.67  0.146630348258706 14.21  C 0.00235174129353234 22.33  6.49488905472637 29  14.5744910447761 29  C 21.9327 29  28.1366800995025 23.345  28.8580731343284 16.095  Z " fill-rule="nonzero" fill="#95f204" stroke="none" transform="matrix(1 0 0 1 36 257 )" />
  </g>
</svg>