<?xml version="1.0" encoding="utf-8"?>
<svg version="1.1" xmlns:xlink="http://www.w3.org/1999/xlink" width="29px" height="29px" xmlns="http://www.w3.org/2000/svg">
  <g transform="matrix(1 0 0 1 -39 -375 )">
    <path d="M 6.99222222222222 5.01491712707182  C 7.35740740740741 4.85469613259669  7.74407407407407 4.77458563535912  8.15222222222222 4.77458563535912  C 8.56037037037037 4.77458563535912  8.95240740740741 4.85469613259669  9.32833333333333 5.01491712707182  C 9.70425925925926 5.17513812154696  10.0264814814815 5.38876611418048  10.295 5.65580110497238  C 10.5635185185185 5.92283609576427  10.7783333333333 6.23793738489871  10.9394444444444 6.60110497237569  C 11.1005555555556 6.96427255985267  11.1811111111111 7.348802946593  11.1811111111111 7.75469613259668  C 11.1811111111111 8.5878453038674  10.8857407407407 9.29281767955801  10.295 9.86961325966851  C 9.70425925925926 10.446408839779  8.99 10.7348066298343  8.15222222222222 10.7348066298343  C 7.74407407407407 10.7348066298343  7.3574074074074 10.6600368324125  6.99222222222222 10.5104972375691  C 6.62703703703704 10.3609576427256  6.31018518518519 10.1473296500921  6.04166666666667 9.86961325966851  C 5.77314814814815 9.59189686924493  5.55833333333333 9.2767955801105  5.39722222222222 8.92430939226519  C 5.23611111111111 8.57182320441989  5.15555555555556 8.18195211786372  5.15555555555555 7.75469613259669  C 5.15555555555555 7.348802946593  5.23611111111111 6.96427255985267  5.39722222222222 6.60110497237569  C 5.55833333333333 6.23793738489871  5.77314814814815 5.92283609576428  6.04166666666667 5.65580110497238  C 6.31018518518518 5.38876611418048  6.62703703703704 5.17513812154696  6.99222222222222 5.01491712707182  Z M 2.35222222222222 0  L 25.9388888888889 0  C 27.0344444444444 0.0961325966850831  27.8131481481481 0.400552486187846  28.275 1.00939226519337  C 28.7368518518519 1.6182320441989  28.9677777777778 2.41399631675875  29 3.39668508287293  L 29 26.4044198895028  C 28.9677777777778 26.7034990791897  28.897962962963 27.0079189686925  28.7583333333333 27.3176795580111  C 28.6187037037037 27.6274401473297  28.4253703703704 27.8998158379374  28.1783333333333 28.1348066298343  C 27.9312962962963 28.3697974217311  27.6466666666667 28.5620626151013  27.3244444444444 28.7116022099448  C 27.0022222222222 28.8611418047882  26.6477777777778 28.9359116022099  26.2611111111111 29  L 2.51333333333333 29  C 1.84740740740741 28.9359116022099  1.26203703703704 28.668876611418  0.757222222222223 28.1348066298343  C 0.252407407407408 27.6007366482505  0 26.9598526703499  0 26.2121546961326  L 0 2.75580110497238  C 0 1.98674033149171  0.214814814814815 1.351197053407  0.644444444444445 0.849171270718232  C 1.07407407407407 0.347145488029466  1.64333333333333 0.0961325966850834  2.35222222222222 0  Z M 26.0677777777778 10.5104972375691  L 26.0677777777778 3.84530386740331  C 26.0677777777778 3.61031307550645  25.9764814814815 3.40202578268877  25.7938888888889 3.22044198895028  C 25.6112962962963 3.03885819521179  25.3911111111111 2.94806629834254  25.1333333333333 3  L 3.80222222222222 3  C 3.54444444444445 2.94806629834254  3.32962962962963 3.03885819521179  3.15777777777778 3.22044198895028  C 2.98592592592593 3.40202578268877  2.9 3.61031307550645  2.9 3.84530386740331  L 3 3.87734806629834  L 3 15.3491712707182  C 3.11481481481482 15.6055248618785  3.39944444444445 15.8992633517495  3.75388888888889 16.2303867403315  C 4.10833333333334 16.5615101289134  4.52722222222222 16.871270718232  5.01055555555556 17.1596685082873  C 5.49388888888889 17.4480662983426  6.04166666666667 17.6937384898711  6.65388888888889 17.8966850828729  C 7.26611111111111 18.0996316758748  7.94814814814815 18.2011049723757  8.7 18.2011049723757  C 9.86 18.2011049723757  10.8803703703704 18.0141804788214  11.7611111111111 17.6403314917127  C 12.6418518518519 17.2664825046041  13.4742592592593 16.807182320442  14.2583333333333 16.2624309392265  C 15.0424074074074 15.717679558011  15.8103703703704 15.1195211786372  16.5622222222222 14.467955801105  C 17.3140740740741 13.8163904235727  18.1357407407407 13.2075506445672  19.0272222222222 12.6414364640884  C 19.9187037037037 12.0753222836096  20.9337037037037 11.5946593001842  22.0722222222222 11.1994475138122  C 23.2107407407407 10.8042357274402  24.5425925925926 10.5745856353591  26.0677777777778 10.5104972375691  Z " fill-rule="nonzero" fill="#0000ff" stroke="none" transform="matrix(1 0 0 1 39 375 )" />
  </g>
</svg>