<?xml version="1.0" encoding="utf-8"?>
<svg version="1.1" xmlns:xlink="http://www.w3.org/1999/xlink" width="19px" height="15px" xmlns="http://www.w3.org/2000/svg">
  <g transform="matrix(1 0 0 1 -45 -441 )">
    <path d="M 5.433145 5.17455  C 2.590435 0.914555  1.41846 0.296100000000001  1.19091 0.211  C 1.083795 0.285924999999999  0.853655000000002 0.590249999999999  0.7347 1.375205  C 0.56006 2.526275  0.612599999999999 4.840625  1.854875 9.331685  C 1.89243 9.455635  2.270385 10.69051  2.79486 11.996055  C 3.56668 13.91765  4.07432 14.564595  4.27375 14.764395  C 4.56457 14.64544  5.23723 14.210135  6.18961 13.051665  C 7.023035 12.037865  7.76988 10.828335  8.24866 9.729065  C 7.76507 8.88935  6.67653 7.038055  5.433145 5.17455  Z M 18.265115 1.375205  C 18.14616 0.590249999999999  17.91602 0.285739999999999  17.80909 0.211  C 17.58154 0.296100000000001  16.409565 0.914555  13.566855 5.17455  C 12.32347 7.038055  11.235115 8.88935  10.75134 9.729065  C 11.230305 10.828335  11.976965 12.03768  12.81039 13.051665  C 13.76277 14.210135  14.435615 14.64544  14.726435 14.764395  C 14.92605 14.56404  15.435725 13.914505  16.210875 11.98181  C 16.5569815290479 11.111133027064  16.8685791739646 10.2271313107265  17.14494 9.33187  C 18.38703 4.84081  18.439755 2.526275  18.265115 1.375205  Z " fill-rule="nonzero" fill="#fa9d3b" stroke="none" transform="matrix(1 0 0 1 45 441 )" />
  </g>
</svg>