<?xml version="1.0" encoding="utf-8"?>
<svg version="1.1" xmlns:xlink="http://www.w3.org/1999/xlink" width="35px" height="35px" xmlns="http://www.w3.org/2000/svg">
  <g transform="matrix(1 0 0 1 -37 -431 )">
    <path d="M 34 5.29  C 34.15 2.837825  32.162175 0.850000000000001  29.71 1  L 5.29 1  C 2.837825 0.85  0.850000000000001 2.837825  1 5.29  L 1 29.71  C 0.850000000000001 32.162175  2.837825 34.15  5.29 34  L 29.71 34  C 32.162175 34.15  34.15 32.162175  34 29.71  L 34 5.29  Z M 27.702195 8.945785  C 29.014955 10.67091  28.889155 14.269345  27.31758 19.94644  L 27.311105 19.969195  C 27.29131 20.035425  26.815675 21.61588  26.141905 23.223715  C 25.01544 25.91121  24.028835 27.058025  22.84317 27.058025  C 21.760365 27.058025  20.51291 26.22053  19.1354 24.568665  C 18.538405 23.8529  17.97804 23.045745  17.5 22.227305  C 17.02196 23.045745  16.461595 23.8529  15.8646 24.568665  C 14.48709 26.22053  13.239635 27.058025  12.15683 27.058025  C 10.971165 27.058025  9.98455999999999 25.911395  8.858095 23.223715  C 8.18413999999999 21.616065  7.708875 20.03561  7.688895 19.969195  L 7.68241999999999 19.94644  C 6.11084499999999 14.269345  5.98504499999999 10.67091  7.29743499999999 8.945785  C 8.00579999999999 8.01468  8.90009 7.942345  9.15723999999999 7.942345  C 9.17703499999999 7.942345  9.19645999999999 7.942715  9.21551499999999 7.943455  C 10.256325 7.957515  11.787015 8.681605  15.181765 13.728775  C 16.083825 15.070025  16.902635 16.399065  17.499815 17.399545  C 18.09718 16.399065  18.915805 15.07021  19.817865 13.728775  C 23.212615 8.681605  24.743305 7.957515  25.784115 7.943455  C 25.80317 7.942715  25.822595 7.942345  25.84239 7.942345  C 26.09954 7.942345  26.99383 8.014865  27.702195 8.945785  Z " fill-rule="nonzero" fill="#fa9d3b" stroke="none" transform="matrix(1 0 0 1 37 431 )" />
  </g>
</svg>