<?xml version="1.0" encoding="utf-8"?>
<svg version="1.1" xmlns:xlink="http://www.w3.org/1999/xlink" width="29px" height="24px" xmlns="http://www.w3.org/2000/svg">
  <g transform="matrix(1 0 0 1 -39 -490 )">
    <path d="M 29 5.2617025862069  C 28.9290383078835 2.39721982758621  26.6089932528409 0.066853448275863  23.7575561523437 0  L 5.32235218394886 0  C 2.4709150834517 0.0668534482758618  0.150870028409091 2.39725215517241  0.150870028409091 5.2617025862069  L 0.150870028409091 18.7068103448276  C 0.150870028409091 21.5712931034483  2.4709150834517 23.9016594827586  5.32235218394886 24  L 23.7575561523438 24  C 26.6089932528409 23.9016594827586  28.9290383078835 21.5712931034483  29 18.7068103448276  L 29 5.2617025862069  Z M 27 5.2617025862069  L 27 18.7068103448276  C 27.2052001953125 20.616400862069  25.6586858575994 22.1700323275862  23.7575561523437 22  L 5.32235218394886 22  C 3.42119029651989 22.1700323275862  1.87470814098011 20.616400862069  2 18.7068103448276  L 2 5.2617025862069  C 1.87470814098011 3.35211206896552  3.42122247869318 1.79848060344828  5.32235218394886 2  L 23.7575561523438 2  C 25.6587180397727 1.79848060344828  27.2052001953125 3.35211206896552  27 5.2617025862069  Z " fill-rule="nonzero" fill="#00ffff" stroke="none" transform="matrix(1 0 0 1 39 490 )" />
  </g>
</svg>