<?xml version="1.0" encoding="utf-8"?>
<svg version="1.1" xmlns:xlink="http://www.w3.org/1999/xlink" width="21px" height="5px" xmlns="http://www.w3.org/2000/svg">
  <g transform="matrix(1 0 0 1 -42 -493 )">
    <path d="M 20.8368094857283 0.922662550403225  C 20.8368094857283 0.456747731854839  20.4496478223425 0.0789755544354841  19.9718642347441 0  L 0.948720472440946 0  C 0.470904589074804 0.0789755544354841  0.0837752214566934 0.456747731854839  0.0837752214566934 0.922662550403225  C 0.0837752214566934 1.38857736895161  0.470904589074803 1.76634954637097  0.948720472440946 1.76634954637097  L 19.9718642347441 1.76634954637097  C 20.4496801181102 1.76634954637097  20.8368094857283 1.38857736895161  20.8368094857283 0.922662550403225  Z M 20.8368094857283 4.12348790322581  C 20.8368094857283 3.65757308467742  20.4496478223425 3.27980090725806  19.9718642347441 3.27980090725806  L 0.948720472440946 3.27980090725806  C 0.470904589074804 3.27980090725806  0.0837752214566934 3.65757308467742  0.0837752214566934 4.12348790322581  C 0.0837752214566934 4.58940272177419  0.470904589074803 4.96717489919355  0.948720472440946 5  L 19.9718642347441 5  C 20.4496801181102 4.96717489919355  20.8368094857283 4.58940272177419  20.8368094857283 4.12348790322581  Z " fill-rule="nonzero" fill="#00ffff" stroke="none" transform="matrix(1 0 0 1 42 493 )" />
  </g>
</svg>