<?xml version="1.0" encoding="utf-8"?>
<svg version="1.1" xmlns:xlink="http://www.w3.org/1999/xlink" width="31px" height="31px" xmlns="http://www.w3.org/2000/svg">
  <g transform="matrix(1 0 0 1 -37 -540 )">
    <path d="M 26.4011498892435 26.4010554139672  C 32.4128885372999 20.3903745641197  32.4128885372999 10.6095120950838  26.4011498892435 4.5988690131955  C 20.390469039396 -1.41286967177973  10.6096065703601 -1.41286967177973  4.59892568359375 4.5988690131955  C -1.41281300138148 10.6095120950838  -1.41281300138148 20.3904123320789  4.59892568359375 26.4010554139672  C 10.6096065334413 32.4128318669017  20.3905068073552 32.4128318669017  26.4011498892435 26.4010554139672  Z M 24.836521653487 6.16296831292873  C 29.9845885908918 11.3105063143102  29.9845885908918 19.6894181128525  24.836521653487 24.8375228182165  C 19.6883791801639 29.9856275235804  11.3105629847085 29.9845319204935  6.16302498332698 24.8375228182165  C 1.01435357398056 19.6883225097656  1.01435357398056 11.3121308534203  6.16302498332698 6.16296831292873  C 11.3105629847085 1.0153925066692  19.6884169481231 1.01425913562309  24.836521653487 6.16296831292873  Z " fill-rule="nonzero" fill="#ffff80" stroke="none" transform="matrix(1 0 0 1 37 540 )" />
  </g>
</svg>