<?xml version="1.0" encoding="utf-8"?>
<svg version="1.1" xmlns:xlink="http://www.w3.org/1999/xlink" width="13px" height="4px" xmlns="http://www.w3.org/2000/svg">
  <g transform="matrix(1 0 0 1 -46 -559 )">
    <path d="M 12.8327140210701 1.31502838541667  C 12.8327139825994 0.566780164930555  12.233190160393 -0.0481362413194467  11.5106436819366 0.202182899305557  L 11.4162410304214 0.236826085069446  C 9.86548637251421 1.02886684027778  8.20206266276042 1.43188250868056  6.47616312736742 1.43188250868056  C 4.69329918619792 1.43188250868056  3.00712120620265 1.02495842013889  1.46321643880209 0.225322786458334  L 1.36991604817709 0.193122395833336  C 1.31188873697917 0.175178993055558  1.23339042672822 0.149551953125  1.13552345525568 0.149551953125  C 0.567808354048297 0.149551953125  0.107014713541671 0.669421701388889  0.107014713541671 1.30734474826389  C 0.107014713541671 1.61025047743056  0.233304835464018 1.91448867187501  0.44151823212595 2.143000390625  L 0.428999461410989 2.21353033854167  L 0.691815204782202 2.34703980034722  C 2.53498976680872 3.28800182291667  4.53968817471591 3.78348810763889  6.48864254261364 3.78348810763889  C 8.47405100023675 3.78348810763889  10.4195804036458 3.30083758680556  12.2968863902699 2.33549205729167  C 12.6267839340672 2.13136380208334  12.8327140210701 1.73994027777779  12.8327140210701 1.31502838541667  Z " fill-rule="nonzero" fill="#ffff80" stroke="none" transform="matrix(1 0 0 1 46 559 )" />
  </g>
</svg>