<?xml version="1.0" encoding="utf-8"?>
<svg version="1.1" xmlns:xlink="http://www.w3.org/1999/xlink" width="28px" height="28px" xmlns="http://www.w3.org/2000/svg">
  <g transform="matrix(1 0 0 1 -42 -616 )">
    <path d="M 27.9861650555165 14.0088935387454  C 27.986165003856 12.8283595276753  27.7057901843402 11.3310513653137  27.6938559335608 11.2678397380074  C 27.5303172085848 10.4036424169742  27.0025856134376 9.84527961623616  26.3494650087241 9.84527961623616  C 26.3411110641749 9.84527961623616  26.3326377580034 9.84535919926199  26.328023182413 9.84551831365314  L 26.2077659218626 9.84551831365314  C 24.31893548695 9.84551831365314  22.7822045828702 8.30882719557195  22.7822045828702 6.41995693357933  C 22.7822045828702 5.80697514760147  23.0778949889182 5.11976244280443  23.0804409741276 5.11383509594096  C 23.4189354756032 4.35187432472325  23.1585306226375 3.41750373431734  22.4752960182852 2.94081086346863  L 22.4339240298515 2.91169132841328  L 18.9623363482377 0.983159660516604  L 18.9184184004249 0.9639057601476  C 18.6923045581181 0.86560749815498  18.4448284208646 0.815762202952028  18.182792516258 0.815762202952028  C 17.6457919655025 0.815762202952028  17.117662558552 1.03129437269373  16.7702969391016 1.39194679704797  C 16.3895154639634 1.7849807306273  15.0752386162564 2.9068778597786  14.0653243479251 2.9068778597786  C 13.0463002900351 2.9068778597786  11.7242264239715 1.76294219926199  11.3418139230225 1.36262836900369  C 10.9926183589446 0.994616516605164  10.4602722140373 0.774907361623615  9.91786148991494 0.774907361623615  C 9.66095730849406 0.774907361623615  9.41793663244172 0.82300229520295  9.195681520716 0.917799885608854  L 9.15057013749316 0.936934424354242  L 5.55649749055861 2.91117420664206  L 5.51405142833702 2.9406119704797  C 4.82858906755382 3.41686727675277  4.56671232899699 4.35040246494465  4.90484879726657 5.11196542435424  C 4.90783234704629 5.1188077306273  5.2039603693252 5.80228101476015  5.2039603693252 6.41987737638376  C 5.2039603693252 8.30874761254612  3.66726926967297 9.84543875645756  1.77839903033285 9.84543875645756  L 1.66005127160455 9.84543875645756  C 1.65181666284722 9.84527964206642  1.64362180685693 9.84516030627306  1.63546675529422 9.84516030627306  C 0.982982659798178 9.84516030627306  0.455728407818755 10.4035628856089  0.292229487270311 11.2679193468635  C 0.280295262321182 11.3312901143911  0 12.8338095830258  0 14.0089731217712  C 0 15.1840969077491  0.280295236490924 16.6865367933579  0.29226926586762 16.7500666752768  C 0.455887548038249 17.6143037749077  0.983460028796144 18.1727063542435  1.63638168886258 18.1727063542435  C 1.64465607621722 18.1727063542435  1.65320893958329 18.1725472398524  1.65814176978243 18.172388099631  L 1.77839903033285 18.172388099631  C 3.66726924384271 18.172388099631  5.2039603693252 19.7090792177122  5.2039603693252 21.597909701107  C 5.2039603693252 22.2116473062731  4.90834952047182 22.8980246346863  4.90572397806789 22.9040315387454  C 4.56750792677343 23.665355800738  4.82715696055993 24.5996866125461  5.5100335575365 25.0776922546125  L 5.55057016959648 25.1059365830258  L 8.95600242764942 27.0103213247232  L 8.99928389207501 27.0293763062731  C 9.2253182030174 27.1286293321033  9.47211805245615 27.1789519704797  9.73280140726345 27.1789519704797  C 10.2773602789615 27.1789519704797  10.8093086378957 26.9540713136531  11.1557593237778 26.5773474575646  C 11.6394138308926 26.05176400369  12.9516618926461 24.9665049778598  13.9208406559309 24.9665049778598  C 14.9702174108738 24.9665049778598  16.3159608855097 26.1831200885609  16.7043007074207 26.6088936162362  C 17.0515072124819 26.9919823837638  17.5870756304133 27.2208013542435  18.1371242585031 27.2209604686347  C 18.3928747831113 27.2209604686347  18.6352589757764 27.1723085830258  18.8577925635136 27.0763573874539  L 18.901989013168 27.0572626273063  L 22.4319350741558 25.1062548376384  L 22.4737048743928 25.0770955239852  C 23.1580135783633 24.6003628487085  23.419134497741 23.6667480774908  23.0817140700532 22.9069355055351  C 23.0787305202735 22.9000136678967  22.7822047120215 22.2073907896679  22.7822047120215 21.5979494538745  C 22.7822047120215 19.70911899631  24.3189356161013 18.1724278523985  26.2077660510139 18.1724278523985  L 26.3244430311644 18.1723880738007  C 26.3322002709238 18.1725471881919  26.3399177320859 18.1726267712177  26.3476749976755 18.1726267712177  C 27.0019889861385 18.1725869926199  27.5303173119058 17.6141844132841  27.6936173394677 16.7505440184502  C 27.6965213320528 16.7353079889299  27.9861650555165 15.2134550627306  27.9861650555165 14.0088935387454  Z M 10.9522011085068 24.1543408782288  C 10.3377872228863 24.6047387269373  9.88436605120225 25.0619390258303  9.75058337014983 25.2014501623616  L 6.77164067524785 23.5357102214022  C 6.90291720134878 23.1985682398524  7.17040305791952 22.4116251660517  7.17040305791952 21.5979891808118  C 7.17040305791952 18.7726001808118  4.99610585890279 16.4366737047971  2.19581855669221 16.221817797048  C 2.12743542836102 15.8233338597786  1.96660180298356 14.8020025535055  1.96660180298356 14.0090127712177  C 1.96660180298356 13.2171368671587  2.1273558711664 12.1948905756458  2.19569922090029 11.7960884095941  C 4.99610585890279 11.5813916420664  7.17040305791952 9.24546516605166  7.17040305791952 6.41991702583026  C 7.17040305791952 5.60842921402214  6.90434930834268 4.82367409225093  6.77335125825317 4.48641277490775  L 9.94328140842928 2.74536786715867  C 10.0577306838095 2.86212440590406  10.5148911986222 3.3157444501845  11.1460925821963 3.76554556826568  C 12.1774884296058 4.50073387084871  13.1596357130302 4.87351941328414  14.0652845693278 4.87351941328414  C 14.9620225548835 4.87351941328414  15.936372794121 4.50797396309963  16.9612445899482 3.78698742066421  C 17.5884679071494 3.34581874907749  18.043440495789 2.90095046125461  18.157412376341 2.78618295571956  L 21.2138480149631 4.48374750553506  C 21.0826908246541 4.82096904428045  20.8156425843142 5.60735519188192  20.8156425843142 6.41995685608856  C 20.8156425843142 9.24550497047971  22.9899000047337 11.5814314464945  25.7903066427362 11.7961282398524  C 25.8586500183003 12.1955271107011  26.0194836178475 13.2195635424354  26.0194836178475 14.009052601476  C 26.0194836178475 14.801724103321  25.8587295496647 15.8234134686347  25.7903861999308 16.2220167416974  C 22.9900193146953 16.4366737564576  20.8156823370813 18.7726002324723  20.8156823370813 21.5981881254613  C 20.8156823370813 22.4105511180812  21.0821736770588 23.1958234132841  21.2132910629402 23.5329653690037  L 18.1192626092708 25.2429017343173  C 17.9857583783996 25.1010833099631  17.5354003395201 24.6394275239852  16.9119562215356 24.1764192140221  C 15.8606302120035 23.3957217416974  14.8542564454748 22.9998633210332  13.9208008256731 22.9998633210332  C 12.9962958552105 22.9998633210332  11.9975202398821 23.3883224833948  10.9522011085068 24.1543408782288  Z M 13.9324168218437 18.9472377564576  C 16.6654746008753 18.9472377822878  18.8889408325127 16.723811302583  18.8889408325127 13.990872800738  C 18.8889408325127 11.257934298893  16.665434822278 9.03454759778598  13.9324168218437 9.03454759778598  C 11.1994783527738 9.03454759778598  8.976091678331 11.2579342730627  8.976091678331 13.990872800738  C 8.976091678331 16.723811302583  11.1994783269435 18.9472377564576  13.9324168218437 18.9472377564576  Z M 10.9427332857421 13.990872800738  C 10.9427332857421 12.3423181439114  12.2839019375547 11.0011892546125  13.9324167960135 11.0011892546125  C 15.5810509902641 11.0011892546125  16.9222992251016 12.3423579225092  16.9222992251016 13.990872800738  C 16.9222992251016 15.6395070147601  15.5810509902641 16.9807552656827  13.9324167960135 16.9807552656827  C 12.2839019375547 16.9807552656827  10.9427332857421 15.6395070147601  10.9427332857421 13.990872800738  Z " fill-rule="nonzero" fill="#02a7f0" stroke="none" transform="matrix(1 0 0 1 42 616 )" />
  </g>
</svg>