<?xml version="1.0" encoding="utf-8"?>
<svg version="1.1" xmlns:xlink="http://www.w3.org/1999/xlink" width="26px" height="27px" xmlns="http://www.w3.org/2000/svg">
  <g transform="matrix(1 0 0 1 -137 -729 )">
    <path d="M 11.2407711988304 13.4101118607955  C 11.0952576754386 13.8086159446023  10.718110380117 14.060302734375  10.3142361111111 14.060302734375  C 10.2043585526316 14.060302734375  10.0915113304094 14.0423251065341  9.98163377192982 14.0003773082386  C 8.55916483918129 13.4850186434659  7.35645102339181 12.5411931818182  6.50712719298246 11.2737704190341  C 5.44101790935673 9.68574662642046  5.05199195906433 7.77712180397728  5.41132127192982 5.89546342329546  C 5.77065058479532 4.01380504261364  6.83379020467836 2.38383345170455  8.40771198830409 1.30817205255682  C 9.97866410818713 0.232510653409091  11.8733095760234 -0.162997159090909  13.7382584064327 0.202547940340909  C 15.6032072368421 0.565096768465909  17.2187043128655 1.63776189630682  18.2848135964912 3.22578568892046  C 19.350922880117 4.81380948153409  19.7399488304094 6.72243430397727  19.3806195175439 8.60409268465909  C 19.0212902046784 10.4857510653409  17.9581505847953 12.11572265625  16.3842288011696 13.1913840553977  C 15.9061129385965 13.5179776278409  15.3893914473684 13.7876420454545  14.8489126461988 13.9883922230114  C 14.3411001461988 14.1801535866477  13.7768640350877 13.9134854403409  13.5897752192982 13.401123046875  C 13.4026864035088 12.8887606534091  13.6640168128655 12.3194691051136  14.1718293128655 12.1307040127841  C 14.5608552631579 11.9868829900568  14.9350328947368 11.7921253551136  15.2824835526316 11.5524236505682  C 16.4228344298246 10.7733931107955  17.1919773391813 9.59286221590909  17.453307748538 8.23255504261364  C 17.711668494152 6.86925159801136  17.4295504385965 5.48497425426137  16.6604075292398 4.33740234375  C 15.8882949561403 3.18683416193182  14.7182474415205 2.41079989346591  13.3700201023392 2.15012428977273  C 12.0217927631579 1.88944868607955  10.6468384502924 2.17109818892046  9.50945723684211 2.95012872869318  C 7.15748355263158 4.55613014914773  6.53979349415205 7.79509943181818  8.13450292397661 10.1681463068182  C 8.74922331871345 11.0850053267045  9.61933479532164 11.7681551846591  10.6498081140351 12.1426890980114  C 11.1605902777778 12.3284579190341  11.4248903508772 12.8947531960227  11.2407711988304 13.4101118607955  Z M 2.09717653508772 25.9225408380682  C 2.09717653508772 26.4678622159091  1.65766630116959 26.9113103693182  1.11421783625731 26.9113103693182  C 0.573739035087719 26.9113103693182  0.134228801169591 26.4678622159091  0.134228801169591 25.9225408380682  C 0.134228801169591 20.9457341974432  2.26050804093567 15.0131170099432  12.3959703947368 15.0131170099432  C 14.3381304824561 15.0131170099432  16.0694444444444 15.2288485440341  17.5453673245614 15.6543190696023  C 18.0650584795322 15.8041326349432  18.3679641812865 16.3524502840909  18.219480994152 16.8767977627841  C 18.0709978070175 17.4011452414773  17.5275493421053 17.7067649147727  17.0078581871345 17.5569513494318  C 15.7071454678363 17.1824174360795  14.1540113304094 16.99365234375  12.3959703947368 16.99365234375  C 5.36974597953217 16.99365234375  2.09717653508772 19.8311212713068  2.09717653508772 25.9225408380682  Z M 18.2076023391813 22.8783291903409  L 18.2076023391813 20.8977938565341  L 25.9435763888889 20.8977938565341  L 25.9435763888889 22.8783291903409  L 18.2076023391813 22.8783291903409  Z M 20.6843019005848 26.9113103693182  L 20.6843019005848 24.9307750355114  L 24.7081962719298 24.9307750355114  L 24.7081962719298 26.9113103693182  L 20.6843019005848 26.9113103693182  Z M 19.445952119883 19.2108931107955  L 19.445952119883 17.2303577769886  L 24.7081962719298 17.2303577769886  L 24.7081962719298 19.2108931107955  L 19.445952119883 19.2108931107955  Z " fill-rule="nonzero" fill="#555555" stroke="none" transform="matrix(1 0 0 1 137 729 )" />
  </g>
</svg>