<?xml version="1.0" encoding="utf-8"?>
<svg version="1.1" xmlns:xlink="http://www.w3.org/1999/xlink" width="19px" height="27px" xmlns="http://www.w3.org/2000/svg">
  <g transform="matrix(1 0 0 1 -302 -731 )">
    <path d="M 10.8486938476563 13.3631919642857  C 10.6979370117188 13.7639732142857  10.3355407714844 14.0170982142857  9.94415283203125 14.0170982142857  C 9.83688354492188 14.0170982142857  9.7296142578125 13.9990178571429  9.62234497070312 13.9568303571429  C 8.24234008789062 13.4415401785714  7.07687377929687 12.4983482142857  6.25350952148437 11.2327232142857  C 4.11972045898437 7.96017857142857  4.94598388671875 3.49131696428572  8.09738159179688 1.27345982142857  C 9.62234497070313 0.197678571428571  11.4633178710938 -0.1940625  13.2695007324219 0.167544642857143  C 15.0785827636719 0.529151785714286  16.6441345214844 1.60191964285714  17.6791381835938 3.18696428571429  C 18.7112426757813 4.77200892857143  19.0910339355469 6.67948660714286  18.7431335449219 8.56285714285714  C 18.3952331542969 10.4432142857143  17.3631286621094 12.0704464285714  15.8381652832031 13.1462276785714  C 15.3742980957031 13.4716741071429  14.8756408691406 13.7398660714286  14.3508911132813 13.9417633928571  C 13.8609313964844 14.1316071428571  13.3100891113281 13.8694419642857  13.1303405761719 13.3571651785714  C 12.9505920410156 12.8448883928571  13.1999206542969 12.2753571428571  13.6956787109375 12.0885267857143  C 14.0725708007813 11.9438839285714  14.4378662109375 11.7480133928571  14.774169921875 11.51296875  C 15.8787536621094 10.7355133928571  16.6267395019531 9.55727678571428  16.8789672851563 8.19522321428571  C 17.1311950683594 6.83316964285714  16.8586730957031 5.45002232142857  16.1077880859375 4.30191964285714  C 15.3598022460938 3.15381696428571  14.2262268066406 2.37636160714286  12.9158020019531 2.11419642857143  C 11.6053771972656 1.85504464285714  10.274658203125 2.13529017857143  9.17007446289063 2.91575892857143  C 6.89132690429688 4.52189732142857  6.29119873046875 7.75828125  7.83645629882813 10.1268080357143  C 8.43368530273438 11.0428794642857  9.27734375 11.72390625  10.274658203125 12.0975669642857  C 10.7704162597656 12.2813839285714  11.0255432128906 12.8479017857143  10.8486938476563 13.3631919642857  Z M 1.971435546875 25.8627455357143  C 1.971435546875 26.4111830357143  1.54815673828125 26.8541517857143  1.0205078125 26.8541517857143  C 0.495758056640625 26.8541517857143  0.069580078125 26.4111830357143  0.069580078125 25.8657589285714  C 0.069580078125 20.8936607142857  2.1337890625 14.9633035714286  11.9619750976563 14.9633035714286  C 12.4867248535156 14.9633035714286  12.9129028320312 15.4062723214286  12.9129028320312 15.9516964285714  C 12.9129028320312 16.4971205357143  12.4867248535156 16.9400892857143  11.9619750976563 16.9400892857143  C 5.14602661132812 16.9400892857143  1.971435546875 19.7756919642857  1.971435546875 25.8627455357143  Z " fill-rule="nonzero" fill="#555555" stroke="none" transform="matrix(1 0 0 1 302 731 )" />
  </g>
</svg>