<?xml version="1.0" encoding="utf-8"?>
<svg version="1.1" xmlns:xlink="http://www.w3.org/1999/xlink" width="10px" height="25px" preserveAspectRatio="xMidYMin meet" viewBox="56 775  8 25" xmlns="http://www.w3.org/2000/svg">
  <path d="M 28.5 799  L 28.5 785  A 5 5 0 0 1 33.5 780.5 L 55 780.5  A 5 5 0 0 1 60.5 785.5 L 60.5 800  " stroke-width="1" stroke="#ff0000" fill="none" />
  <path d="M 28.5 794  A 3 3 0 0 0 25.5 797 A 3 3 0 0 0 28.5 800 A 3 3 0 0 0 31.5 797 A 3 3 0 0 0 28.5 794 Z M 66 799  L 55 799  L 55 800  L 66 800  L 66 799  Z " fill-rule="nonzero" fill="#ff0000" stroke="none" />
</svg>