<?xml version="1.0" encoding="utf-8"?>
<svg version="1.1" xmlns:xlink="http://www.w3.org/1999/xlink" width="18px" height="18px" preserveAspectRatio="xMinYMid meet" viewBox="209 789  18 16" xmlns="http://www.w3.org/2000/svg">
  <path d="M 218.5 799  L 218.5 785  A 5 5 0 0 1 223.5 780.5 L 245 780.5  A 5 5 0 0 1 250.5 785.5 L 250.5 800  " stroke-width="1" stroke="#ff0000" fill="none" />
  <path d="M 218.5 794  A 3 3 0 0 0 215.5 797 A 3 3 0 0 0 218.5 800 A 3 3 0 0 0 221.5 797 A 3 3 0 0 0 218.5 794 Z M 256 799  L 245 799  L 245 800  L 256 800  L 256 799  Z " fill-rule="nonzero" fill="#ff0000" stroke="none" />
</svg>