<?xml version="1.0" encoding="utf-8"?>
<svg version="1.1" xmlns:xlink="http://www.w3.org/1999/xlink" width="102px" height="102px" xmlns="http://www.w3.org/2000/svg">
  <g transform="matrix(1 0 0 1 -41 -153 )">
    <path d="M 92 153  C 120.56 153  143 175.44  143 204  C 143 232.56  120.56 255  92 255  C 63.44 255  41 232.56  41 204  C 41 175.44  63.44 153  92 153  Z " fill-rule="nonzero" fill="#ffffff" stroke="none" />
    <path d="M 92 153.5  C 120.28 153.5  142.5 175.72  142.5 204  C 142.5 232.28  120.28 254.5  92 254.5  C 63.72 254.5  41.5 232.28  41.5 204  C 41.5 175.72  63.72 153.5  92 153.5  Z " stroke-width="1" stroke="#797979" fill="none" />
  </g>
</svg>