<?xml version="1.0" encoding="utf-8"?>
<svg version="1.1" xmlns:xlink="http://www.w3.org/1999/xlink" width="30px" height="30px" xmlns="http://www.w3.org/2000/svg">
  <g transform="matrix(1 0 0 1 -345 -50 )">
    <path d="M 30 15  C 30 6.71571427734375  23.2842857226563 0  15 0  C 6.71571427734375 0  0 6.71571427734375  0 15  C 0 23.2842857226563  6.71571427734375 30  15 30  C 23.2842857226563 30  30 23.2842857226563  30 15  Z M 14.5071428613281 14.2512857226563  L 14.5071428613281 7.60328572265625  C 14.5071428613281 7.36659225728732  14.6990208266233 7.17471429199219  14.9357142919922 7.17471429199219  C 15.1724077573611 7.17471429199219  15.3642857226563 7.36659225728732  15.3642857226563 7.60328572265625  L 15.3642857226563 14.2512857226563  C 15.3642857226563 14.4879791880252  15.1724077573611 14.6798571533203  14.9357142919922 14.6798571533203  C 14.6990208266233 14.6798571533203  14.5071428613281 14.4879791880252  14.5071428613281 14.2512857226563  Z M 21.7127142773438 18.3756428613281  C 20.5719616393572 21.070379500357  17.929657459939 22.8211329621554  15.0034103523287 22.8211329621554  C 10.9796214653273 22.8211329621554  7.71769607498498 19.5592075718131  7.71769607498498 15.5354186848117  C 7.71769607498498 13.3701071070973  8.68082814814049 11.3169875746765  10.3459285839844 9.93278572265625  C 10.4228896397724 9.86880997090467  10.519813388307 9.83378539366921  10.6198928613281 9.83378539366921  C 10.8565865083916 9.83378539366921  11.0484646209792 10.0256635062569  11.0484646209792 10.2623571533203  C 11.0484646209792 10.3897310010935  10.9918075525628 10.5105049171845  10.8938571386719 10.5919285839844  C 9.42217379146194 11.8132553003736  8.57067844144509 13.626418475111  8.57067844144509 15.538875225634  C 8.57067844144509 19.0892771818976  11.4488479011971 21.9674466416496  14.9992498574607 21.9674466416496  C 18.5496518137243 21.9674466416496  21.4278212734763 19.0892771818976  21.4278212734763 15.538875225634  C 21.4278212734763 13.6230099693579  20.5733011483671 11.8069826310696  19.0971428613281 10.5857142773438  C 18.9988076852101 10.5042949201941  18.9418906956725 10.3832743567853  18.9418906956725 10.2556071386719  C 18.9418906956725 10.0189124772444  19.1337696305647 9.8270335423522  19.3704642919922 9.8270335423522  C 19.4702567291163 9.8270335423522  19.5669209877238 9.86185769464464  19.6437857226563 9.9255  C 22.1220991450501 11.9774278727247  22.9628484973866 15.411039163726  21.7129285839844 18.3758571386719  Z " fill-rule="nonzero" fill="#d7d7d7" stroke="none" transform="matrix(1 0 0 1 345 50 )" />
  </g>
</svg>