<?xml version="1.0" encoding="utf-8"?>
<svg version="1.1" xmlns:xlink="http://www.w3.org/1999/xlink" width="16px" height="14px" xmlns="http://www.w3.org/2000/svg">
  <g transform="matrix(1 0 0 1 -352 -59 )">
    <path d="M 12.6437857226563 0.925285722656252  C 12.5669141209512 0.861658382480453  12.4702524754938 0.826843875091113  12.3704642919922 0.826843875091113  C 12.1337240512834 0.826843875091113  11.9418081670833 1.01875975929126  11.9418081670833 1.2555  C 11.9418081670833 1.38321571529055  11.9987573486072 1.50427967279001  12.0971428613281 1.58571427734375  C 13.5737508471215 2.80697619439963  14.4285751224325 4.62329114544157  14.4285751224325 6.53949881001233  C 14.4285751224325 10.0899007662759  11.5504056626805 12.968070226028  8.00000370641689 12.968070226028  C 4.44960175015331 12.968070226028  1.57143229040127 10.0899007662759  1.57143229040127 6.53949881001233  C 1.57143229040127 4.62728742947353  2.42271009695765 2.81433051736295  3.89407141601563 1.593  C 3.99202182990656 1.51157633320012  4.04867889832298 1.39080241710912  4.04867889832298 1.26342856933594  C 4.04867889832298 1.02673492227249  3.85680078573533 0.834856809684839  3.62010713867188 0.834856809684839  C 3.52002766565075 0.834856809684839  3.42310391711615 0.869881386920296  3.34614286132813 0.933857138671875  C 1.67888284565146 2.31803502248008  0.714292370104989 4.37253836331366  0.714292370104989 6.53949576342514  C 0.714292370104989 10.5632846504266  3.97621776044731 13.8252100407689  8.00000664744874 13.8252100407689  C 12.0237955344502 13.8252100407689  15.2857209247925 10.5632846504266  15.2857209247925 6.53949576342514  C 15.2857209247925 4.367954844335  14.3170631880911 2.30959988329987  12.6437857226562 0.925500000000001  Z " fill-rule="nonzero" fill="#ffffff" stroke="none" transform="matrix(1 0 0 1 352 59 )" />
  </g>
</svg>