<?xml version="1.0" encoding="utf-8"?>
<svg version="1.1" xmlns:xlink="http://www.w3.org/1999/xlink" width="34px" height="34px" xmlns="http://www.w3.org/2000/svg">
  <g transform="matrix(1 0 0 1 -166 -459 )">
    <path d="M 183 459  C 192.52 459  200 466.48  200 476  C 200 485.52  192.52 493  183 493  C 173.48 493  166 485.52  166 476  C 166 466.48  173.48 459  183 459  Z " fill-rule="nonzero" fill="#ffffff" stroke="none" />
    <path d="M 183 459.5  C 192.24 459.5  199.5 466.76  199.5 476  C 199.5 485.24  192.24 492.5  183 492.5  C 173.76 492.5  166.5 485.24  166.5 476  C 166.5 466.76  173.76 459.5  183 459.5  Z " stroke-width="1" stroke="#797979" fill="none" />
  </g>
</svg>