<?xml version="1.0" encoding="utf-8"?>
<svg version="1.1" xmlns:xlink="http://www.w3.org/1999/xlink" width="57px" height="57px" xmlns="http://www.w3.org/2000/svg">
  <g transform="matrix(1 0 0 1 -83 -9 )">
    <path d="M 111.5 9  C 127.46 9  140 21.54  140 37.5  C 140 53.46  127.46 66  111.5 66  C 95.54 66  83 53.46  83 37.5  C 83 21.54  95.54 9  111.5 9  Z " fill-rule="nonzero" fill="#ffffff" stroke="none" />
    <path d="M 111.5 9.5  C 127.18 9.5  139.5 21.82  139.5 37.5  C 139.5 53.18  127.18 65.5  111.5 65.5  C 95.82 65.5  83.5 53.18  83.5 37.5  C 83.5 21.82  95.82 9.5  111.5 9.5  Z " stroke-width="1" stroke="#797979" fill="none" />
  </g>
</svg>