<?xml version="1.0" encoding="utf-8"?>
<svg version="1.1" xmlns:xlink="http://www.w3.org/1999/xlink" width="20px" height="20px" xmlns="http://www.w3.org/2000/svg">
  <g transform="matrix(1 0 0 1 -68 -272 )">
    <path d="M 78 272  C 83.6 272  88 276.4  88 282  C 88 287.6  83.6 292  78 292  C 72.4 292  68 287.6  68 282  C 68 276.4  72.4 272  78 272  Z " fill-rule="nonzero" fill="#7f7f7f" stroke="none" />
    <path d="M 78 272.5  C 83.32 272.5  87.5 276.68  87.5 282  C 87.5 287.32  83.32 291.5  78 291.5  C 72.68 291.5  68.5 287.32  68.5 282  C 68.5 276.68  72.68 272.5  78 272.5  Z " stroke-width="1" stroke="#797979" fill="none" />
  </g>
</svg>