<?xml version="1.0" encoding="utf-8"?>
<svg version="1.1" xmlns:xlink="http://www.w3.org/1999/xlink" width="20px" height="20px" xmlns="http://www.w3.org/2000/svg">
  <g transform="matrix(1 0 0 1 -98 -272 )">
    <path d="M 108 272  C 113.6 272  118 276.4  118 282  C 118 287.6  113.6 292  108 292  C 102.4 292  98 287.6  98 282  C 98 276.4  102.4 272  108 272  Z " fill-rule="nonzero" fill="#ffffff" stroke="none" />
    <path d="M 108 272.5  C 113.32 272.5  117.5 276.68  117.5 282  C 117.5 287.32  113.32 291.5  108 291.5  C 102.68 291.5  98.5 287.32  98.5 282  C 98.5 276.68  102.68 272.5  108 272.5  Z " stroke-width="1" stroke="#797979" fill="none" />
  </g>
</svg>