<?xml version="1.0" encoding="utf-8"?>
<svg version="1.1" xmlns:xlink="http://www.w3.org/1999/xlink" width="12px" height="18px" xmlns="http://www.w3.org/2000/svg">
  <defs>
    <mask fill="white" id="clip644">
      <path d="M 11.1671341463415 8.943375  C 11.154575147058 8.89437602063468  11.1309445136727 8.84909337292832  11.0981524390244 8.8111875  L 6.71961585365854 1.32703125  L 5.99063414634146 0.0800062499999932  L 5.26103048780488 1.3267125  L 0.855329268292689 8.85888749999999  C 0.84460503702222 8.87733926677032  0.835718840381375 8.8968499839673  0.828804878048782 8.917125  C 0.325225609756092 9.8300625  0.0589207317073175 10.86144375  0.0589207317073175 11.90431875  C 0.0589207317073175 15.25696875  2.7197743902439 17.984325  5.99094512195122 17.984325  C 9.26149390243902 17.984325  11.9226585365854 15.25695  11.9226585365854 11.90431875  C 11.9226585365854 10.8713625  11.6616585365854 9.84991875  11.1671341463415 8.94335625  Z " fill-rule="evenodd" />
    </mask>
  </defs>
  <g transform="matrix(1 0 0 1 -1062 -79 )">
    <path d="M 11.1671341463415 8.943375  C 11.154575147058 8.89437602063468  11.1309445136727 8.84909337292832  11.0981524390244 8.8111875  L 6.71961585365854 1.32703125  L 5.99063414634146 0.0800062499999932  L 5.26103048780488 1.3267125  L 0.855329268292689 8.85888749999999  C 0.84460503702222 8.87733926677032  0.835718840381375 8.8968499839673  0.828804878048782 8.917125  C 0.325225609756092 9.8300625  0.0589207317073175 10.86144375  0.0589207317073175 11.90431875  C 0.0589207317073175 15.25696875  2.7197743902439 17.984325  5.99094512195122 17.984325  C 9.26149390243902 17.984325  11.9226585365854 15.25695  11.9226585365854 11.90431875  C 11.9226585365854 10.8713625  11.6616585365854 9.84991875  11.1671341463415 8.94335625  Z " fill-rule="nonzero" fill="#fdfeff" stroke="none" transform="matrix(1 0 0 1 1062 79 )" />
    <path d="M 11.1671341463415 8.943375  C 11.154575147058 8.89437602063468  11.1309445136727 8.84909337292832  11.0981524390244 8.8111875  L 6.71961585365854 1.32703125  L 5.99063414634146 0.0800062499999932  L 5.26103048780488 1.3267125  L 0.855329268292689 8.85888749999999  C 0.84460503702222 8.87733926677032  0.835718840381375 8.8968499839673  0.828804878048782 8.917125  C 0.325225609756092 9.8300625  0.0589207317073175 10.86144375  0.0589207317073175 11.90431875  C 0.0589207317073175 15.25696875  2.7197743902439 17.984325  5.99094512195122 17.984325  C 9.26149390243902 17.984325  11.9226585365854 15.25695  11.9226585365854 11.90431875  C 11.9226585365854 10.8713625  11.6616585365854 9.84991875  11.1671341463415 8.94335625  Z " stroke-width="2" stroke="#ff0000" fill="none" transform="matrix(1 0 0 1 1062 79 )" mask="url(#clip644)" />
  </g>
</svg>