<?xml version="1.0" encoding="utf-8"?>
<svg version="1.1" xmlns:xlink="http://www.w3.org/1999/xlink" width="107px" height="98px" xmlns="http://www.w3.org/2000/svg">
  <g transform="matrix(1 0 0 1 -48 -235 )">
    <path d="M 48 235  L 155 235  L 155 333  L 48 333  L 48 235  " fill-rule="nonzero" fill="#cccccc" stroke="none" />
    <path d="M 55 242  L 148 242  L 148 326  L 55 326  L 55 242  " fill-rule="nonzero" fill="#ffffff" stroke="none" />
    <path d="M 110.99 264.4  C 106.874 264.4  103.64 261.166  103.64 257.05  C 103.64 252.934  106.874 249.7  110.99 249.7  C 115.106 249.7  118.34 252.934  118.34 257.05  C 118.34 261.166  115.106 264.4  110.99 264.4  " fill-rule="nonzero" fill="#cccccc" stroke="none" />
    <path d="M 58 324  L 58 280.55  L 80 260.8  L 110.8 280.58691588785  L 128.4 272.65  L 146 280.58691588785  L 146 324  L 58 324  " fill-rule="nonzero" fill="#169bd5" stroke="none" />
  </g>
</svg>