<?xml version="1.0" encoding="utf-8"?>
<svg version="1.1" xmlns:xlink="http://www.w3.org/1999/xlink" width="61px" height="61px" xmlns="http://www.w3.org/2000/svg">
  <g transform="matrix(1 0 0 1 -163 -741 )">
    <path d="M 193.5 741  C 210.58 741  224 754.42  224 771.5  C 224 788.58  210.58 802  193.5 802  C 176.42 802  163 788.58  163 771.5  C 163 754.42  176.42 741  193.5 741  Z " fill-rule="nonzero" fill="#ffffff" stroke="none" />
    <path d="M 193.5 741.5  C 210.3 741.5  223.5 754.7  223.5 771.5  C 223.5 788.3  210.3 801.5  193.5 801.5  C 176.7 801.5  163.5 788.3  163.5 771.5  C 163.5 754.7  176.7 741.5  193.5 741.5  Z " stroke-width="1" stroke="#797979" fill="none" />
  </g>
</svg>