<?xml version="1.0" encoding="utf-8"?>
<svg version="1.1" xmlns:xlink="http://www.w3.org/1999/xlink" width="10px" height="18px" xmlns="http://www.w3.org/2000/svg">
  <g transform="matrix(1 0 0 1 -24 -66 )">
    <path d="M 0.343750000000001 8.31919013259243  L 8.15625 0.333274639634683  C 8.35199096485186 0.132065220241411  8.61908259832533 0.0187961950257216  8.89779925676156 0.0187961950257216  C 9.47309587566314 0.0187961950257216  9.93946593156625 0.491734843265492  9.93946593156625 1.07513423144738  C 9.93946593156625 1.32344353848769  9.85320674320793 1.56381638219459  9.69583332519531 1.75404929577465  L 9.63541667480469 1.82165493783011  L 2.55625 9.05704225352113  L 9.62916667480469 16.1725352195202  C 10.0127227396922 16.5584201109007  10.0416706721711 17.177641000844  9.69583332519531 17.5985915575484  L 9.63541667480469 17.6667253603653  C 9.25475246044874 18.0555256167169  8.64413857767062 18.0846516086688  8.22916667480469 17.7338028169014  L 8.16197917480469 17.672535203015  L 0.349479174804688 9.8133802734375  C -0.0339210852887719 9.42735459787253  -0.0626425601903771 8.80814051924429  0.283333325195313 8.38732393540933  L 0.343750000000001 8.31919013259243  Z " fill-rule="nonzero" fill="#4a4a4a" stroke="none" transform="matrix(1 0 0 1 24 66 )" />
  </g>
</svg>