<?xml version="1.0" encoding="utf-8"?>
<svg version="1.1" xmlns:xlink="http://www.w3.org/1999/xlink" width="326px" height="220px" xmlns="http://www.w3.org/2000/svg">
  <g transform="matrix(1 0 0 1 -23 -122 )">
    <path d="M 23 122  L 349 122  L 349 342  L 23 342  L 23 122  " fill-rule="nonzero" fill="#cccccc" stroke="none" />
    <path d="M 38 137  L 334 137  L 334 327  L 38 327  L 38 137  " fill-rule="nonzero" fill="#ffffff" stroke="none" />
    <path d="M 209.02 188  C 199.78 188  192.52 180.74  192.52 171.5  C 192.52 162.26  199.78 155  209.02 155  C 218.26 155  225.52 162.26  225.52 171.5  C 225.52 180.74  218.26 188  209.02 188  " fill-rule="nonzero" fill="#cccccc" stroke="none" />
    <path d="M 44 322  L 44 223.55  L 115.25 178.8  L 215 249.521472392638  L 272 205.65  L 329 249.521472392638  L 329 322  L 44 322  " fill-rule="nonzero" fill="#169bd5" stroke="none" />
  </g>
</svg>