<?xml version="1.0" encoding="utf-8"?>
<svg version="1.1" xmlns:xlink="http://www.w3.org/1999/xlink" width="172px" height="192px" xmlns="http://www.w3.org/2000/svg">
  <g transform="matrix(1 0 0 1 -23 -371 )">
    <path d="M 23 371  L 195 371  L 195 563  L 23 563  L 23 371  " fill-rule="nonzero" fill="#cccccc" stroke="none" />
    <path d="M 35 383  L 183 383  L 183 551  L 35 551  L 35 383  " fill-rule="nonzero" fill="#ffffff" stroke="none" />
    <path d="M 125.34 425.6  C 118.116 425.6  112.44 419.924  112.44 412.7  C 112.44 405.476  118.116 399.8  125.34 399.8  C 132.564 399.8  138.24 405.476  138.24 412.7  C 138.24 419.924  132.564 425.6  125.34 425.6  " fill-rule="nonzero" fill="#cccccc" stroke="none" />
    <path d="M 40 547  L 40 459.55  L 74.75 419.8  L 123.4 451.6  L 151.2 443.65  L 179 451.6  L 179 547  L 40 547  " fill-rule="nonzero" fill="#169bd5" stroke="none" />
  </g>
</svg>