<?xml version="1.0" encoding="utf-8"?>
<svg version="1.1" xmlns:xlink="http://www.w3.org/1999/xlink" width="44px" height="46px" xmlns="http://www.w3.org/2000/svg">
  <g transform="matrix(1 0 0 1 -212 -398 )">
    <path d="M 212 398  L 256 398  L 256 444  L 212 444  L 212 398  " fill-rule="nonzero" fill="#cccccc" stroke="none" />
    <path d="M 215 401  L 253 401  L 253 441  L 215 441  L 215 401  " fill-rule="nonzero" fill="#ffffff" stroke="none" />
    <path d="M 238.18 411.5  C 236.332 411.5  234.88 410.048  234.88 408.2  C 234.88 406.352  236.332 404.9  238.18 404.9  C 240.028 404.9  241.48 406.352  241.48 408.2  C 241.48 410.048  240.028 411.5  238.18 411.5  " fill-rule="nonzero" fill="#cccccc" stroke="none" />
    <path d="M 216 440  L 216 419.1  L 225 409.6  L 237.6 417.2  L 244.8 415.3  L 252 417.2  L 252 440  L 216 440  " fill-rule="nonzero" fill="#169bd5" stroke="none" />
  </g>
</svg>